<svg xmlns="http://www.w3.org/2000/svg" xmlns:xlink="http://www.w3.org/1999/xlink" contentStyleType="text/css" data-diagram-type="ACTIVITY" height="2104px" preserveAspectRatio="none" style="width:1758px;height:2104px;background:#141414;" version="1.1" viewBox="0 0 1758 2104" width="1758px" zoomAndPan="magnify"><?plantuml 1.2026.3beta4?><defs/><g><rect fill="#141414" height="2104" style="stroke:none;stroke-width:1;" width="1758" x="0" y="0"/><g class="title" data-source-line="41"><text fill="#D97757" font-family="'Inter, Helvetica, Arial, sans-serif'" font-size="22" font-weight="700" lengthAdjust="spacing" textLength="602.5078" x="577.0288" y="35.4209">Harness Loop + Centurion Auto-Scheduling Flow</text></g><rect fill="#FFFFFF" height="18.625" style="stroke:#FFFFFF;stroke-width:1;" width="1721.5655" x="15" y="58.8828"/><ellipse cx="166.1396" cy="92.5078" fill="#D97757" rx="10" ry="10" style="stroke:#000000;stroke-width:1;"/><rect fill="#1A1A2E" height="52.5938" rx="12.5" ry="12.5" style="stroke:#3D3D5C;stroke-width:1;" width="149.6094" x="91.335" y="122.5078"/><text fill="#F0EFE8" font-family="'Inter, Helvetica, Arial, sans-serif'" font-size="14" lengthAdjust="spacing" textLength="129.6094" x="101.335" y="145.5029">User starts project</text><text fill="#F0EFE8" font-family="'Inter, Helvetica, Arial, sans-serif'" font-size="14" lengthAdjust="spacing" textLength="128.4473" x="101.335" y="161.7998">with requirements</text><rect fill="#1A1A2E" height="52.5938" rx="12.5" ry="12.5" style="stroke:#3D3D5C;stroke-width:1;" width="290.2793" x="21" y="195.1016"/><text fill="#F0EFE8" font-family="'Inter, Helvetica, Arial, sans-serif'" font-size="14" lengthAdjust="spacing" textLength="65.3857" x="31" y="218.0967">Generate</text><text fill="#F0EFE8" font-family="'Inter, Helvetica, Arial, sans-serif'" font-size="14" font-weight="700" lengthAdjust="spacing" textLength="139.3574" x="100.8359" y="218.0967">Design Document</text><text fill="#F0EFE8" font-family="'Inter, Helvetica, Arial, sans-serif'" font-size="14" lengthAdjust="spacing" textLength="270.2793" x="31" y="234.3936">(architecture, components, interfaces)</text><path d="M329.0781,266.293 L329.0781,289.9922 L309.0781,293.9922 L329.0781,297.9922 L329.0781,321.6914 A0,0 0 0 0 329.0781,321.6914 L501.8696,321.6914 A0,0 0 0 0 501.8696,321.6914 L501.8696,276.293 L491.8696,266.293 L329.0781,266.293 A0,0 0 0 0 329.0781,266.293" fill="#1A1A2E" style="stroke:#3D3D5C;stroke-width:1;"/><path d="M491.8696,266.293 L491.8696,276.293 L501.8696,276.293 L491.8696,266.293" fill="#1A1A2E" style="stroke:#3D3D5C;stroke-width:1;"/><text fill="#7C7C9E" font-family="'Inter, Helvetica, Arial, sans-serif'" font-size="13" lengthAdjust="spacing" textLength="117.3364" x="335.0781" y="283.3599">Tasks have types:</text><text fill="#7C7C9E" font-family="'Inter, Helvetica, Arial, sans-serif'" font-size="13" lengthAdjust="spacing" textLength="133.3071" x="335.0781" y="298.4927">engineering, design,</text><text fill="#7C7C9E" font-family="'Inter, Helvetica, Arial, sans-serif'" font-size="13" lengthAdjust="spacing" textLength="151.7915" x="335.0781" y="313.6255">documentation, testing</text><rect fill="#1A1A2E" height="52.5938" rx="12.5" ry="12.5" style="stroke:#3D3D5C;stroke-width:1;" width="285.877" x="23.2012" y="267.6953"/><text fill="#F0EFE8" font-family="'Inter, Helvetica, Arial, sans-serif'" font-size="14" lengthAdjust="spacing" textLength="46.8262" x="33.2012" y="290.6904">Create</text><text fill="#F0EFE8" font-family="'Inter, Helvetica, Arial, sans-serif'" font-size="14" font-weight="700" lengthAdjust="spacing" textLength="75.4619" x="84.4775" y="290.6904">Task DAG</text><text fill="#F0EFE8" font-family="'Inter, Helvetica, Arial, sans-serif'" font-size="14" lengthAdjust="spacing" textLength="265.877" x="33.2012" y="306.9873">(tasks with dependencies &amp; priorities)</text><line style="stroke:#000000;stroke-width:1;" x1="15" x2="15" y1="58.8828" y2="2088.7578"/><path d="M1271.3087,377.3047 L1271.3087,416.1367 L1251.3087,420.1367 L1271.3087,424.1367 L1271.3087,462.9688 A0,0 0 0 0 1271.3087,462.9688 L1450.1114,462.9688 A0,0 0 0 0 1450.1114,462.9688 L1450.1114,387.3047 L1440.1114,377.3047 L1271.3087,377.3047 A0,0 0 0 0 1271.3087,377.3047" fill="#1A1A2E" style="stroke:#3D3D5C;stroke-width:1;"/><path d="M1440.1114,377.3047 L1440.1114,387.3047 L1450.1114,387.3047 L1440.1114,377.3047" fill="#1A1A2E" style="stroke:#3D3D5C;stroke-width:1;"/><text fill="#7C7C9E" font-family="'Inter, Helvetica, Arial, sans-serif'" font-size="13" lengthAdjust="spacing" textLength="135.6558" x="1277.3087" y="394.3716">Centurion evaluates:</text><text fill="#7C7C9E" font-family="'Inter, Helvetica, Arial, sans-serif'" font-size="13" lengthAdjust="spacing" textLength="157.8027" x="1277.3087" y="409.5044">&#8226; CPU load &amp; core count</text><text fill="#7C7C9E" font-family="'Inter, Helvetica, Arial, sans-serif'" font-size="13" lengthAdjust="spacing" textLength="125.5249" x="1277.3087" y="424.6372">&#8226; Memory pressure</text><text fill="#7C7C9E" font-family="'Inter, Helvetica, Arial, sans-serif'" font-size="13" lengthAdjust="spacing" textLength="121.3862" x="1277.3087" y="439.77">&#8226; Active processes</text><text fill="#7C7C9E" font-family="'Inter, Helvetica, Arial, sans-serif'" font-size="13" lengthAdjust="spacing" textLength="102.6289" x="1277.3087" y="454.9028">&#8226; Thermal state</text><rect fill="#1A1A2E" height="68.8906" rx="12.5" ry="12.5" style="stroke:#3D3D5C;stroke-width:1;" width="291.8174" x="959.4913" y="385.6914"/><text fill="#F0EFE8" font-family="'Inter, Helvetica, Arial, sans-serif'" font-size="14" lengthAdjust="spacing" textLength="42.5469" x="969.4913" y="408.6865">Query</text><text fill="#F0EFE8" font-family="'Inter, Helvetica, Arial, sans-serif'" font-size="14" font-weight="700" lengthAdjust="spacing" textLength="77.6836" x="1016.4883" y="408.6865">Centurion</text><text fill="#F0EFE8" font-family="'Inter, Helvetica, Arial, sans-serif'" font-size="14" lengthAdjust="spacing" textLength="271.8174" x="969.4913" y="424.9834">localhost:8100/api/centurion/hardware</text><text fill="#F0EFE8" font-family="'Inter, Helvetica, Arial, sans-serif'" font-size="14" lengthAdjust="spacing" textLength="39.1699" x="969.4913" y="441.2803">&#8594; get</text><text fill="#F0EFE8" font-family="'Inter, Helvetica, Arial, sans-serif'" font-size="14" font-weight="700" lengthAdjust="spacing" textLength="213.5137" x="1013.1114" y="441.2803">recommended_max_agents</text><polygon fill="#1A1A2E" points="842.1417,482.9688,972.045,482.9688,984.045,494.9688,972.045,506.9688,842.1417,506.9688,830.1417,494.9688,842.1417,482.9688" style="stroke:#D97757;stroke-width:1;"/><text fill="#D97757" font-family="'Inter, Helvetica, Arial, sans-serif'" font-size="14" lengthAdjust="spacing" textLength="46.8877" x="911.0933" y="519.9639">critical</text><text fill="#F0EFE8" font-family="'Inter, Helvetica, Arial, sans-serif'" font-size="14" lengthAdjust="spacing" textLength="129.9033" x="842.1417" y="499.8154">Memory pressure?</text><rect fill="#1A1A2E" height="52.5938" rx="12.5" ry="12.5" style="stroke:#3D3D5C;stroke-width:1;" width="174.0068" x="820.0899" y="543.2656"/><text fill="#F0EFE8" font-family="'Inter, Helvetica, Arial, sans-serif'" font-size="14" font-weight="700" lengthAdjust="spacing" textLength="47.5029" x="830.0899" y="566.2607">Pause</text><text fill="#F0EFE8" font-family="'Inter, Helvetica, Arial, sans-serif'" font-size="14" lengthAdjust="spacing" textLength="102.0537" x="882.043" y="566.2607">all dispatching</text><text fill="#F0EFE8" font-family="'Inter, Helvetica, Arial, sans-serif'" font-size="14" lengthAdjust="spacing" textLength="128.4131" x="830.0899" y="582.5576">Wait for resources</text><polygon fill="#1A1A2E" points="1082.7354,482.9688,1117.3936,482.9688,1129.3936,494.9688,1117.3936,506.9688,1082.7354,506.9688,1070.7354,494.9688,1082.7354,482.9688" style="stroke:#D97757;stroke-width:1;"/><text fill="#F0EFE8" font-family="'Inter, Helvetica, Arial, sans-serif'" font-size="14" lengthAdjust="spacing" textLength="34.6582" x="1082.7354" y="499.8154">warn</text><text fill="#D97757" font-family="'Inter, Helvetica, Arial, sans-serif'" font-size="14" lengthAdjust="spacing" textLength="49.3008" x="1129.3936" y="491.667">normal</text><rect fill="#1A1A2E" height="52.5938" rx="12.5" ry="12.5" style="stroke:#3D3D5C;stroke-width:1;" width="171.9355" x="1014.0967" y="526.9688"/><text fill="#F0EFE8" font-family="'Inter, Helvetica, Arial, sans-serif'" font-size="14" font-weight="700" lengthAdjust="spacing" textLength="58.0576" x="1024.0967" y="549.9639">Reduce</text><text fill="#F0EFE8" font-family="'Inter, Helvetica, Arial, sans-serif'" font-size="14" lengthAdjust="spacing" textLength="71.1211" x="1086.6046" y="549.9639">batch size</text><text fill="#F0EFE8" font-family="'Inter, Helvetica, Arial, sans-serif'" font-size="14" lengthAdjust="spacing" textLength="151.9355" x="1024.0967" y="566.2607">(halve current target)</text><rect fill="#1A1A2E" height="36.2969" rx="12.5" ry="12.5" style="stroke:#3D3D5C;stroke-width:1;" width="184.6777" x="1206.0323" y="546.2656"/><text fill="#F0EFE8" font-family="'Inter, Helvetica, Arial, sans-serif'" font-size="14" lengthAdjust="spacing" textLength="164.6777" x="1216.0323" y="569.2607">Proceed at full capacity</text><rect fill="#1A1A2E" height="52.5938" rx="12.5" ry="12.5" style="stroke:#3D3D5C;stroke-width:1;" width="284.7012" x="963.0494" y="635.8594"/><text fill="#F0EFE8" font-family="'Inter, Helvetica, Arial, sans-serif'" font-size="14" lengthAdjust="spacing" textLength="29.7021" x="973.0494" y="658.8545">Find</text><text fill="#F0EFE8" font-family="'Inter, Helvetica, Arial, sans-serif'" font-size="14" font-weight="700" lengthAdjust="spacing" textLength="91.9844" x="1007.2017" y="658.8545">ready tasks</text><text fill="#F0EFE8" font-family="'Inter, Helvetica, Arial, sans-serif'" font-size="14" lengthAdjust="spacing" textLength="264.7012" x="973.0494" y="675.1514">(status=pending, all deps completed)</text><polygon fill="#1A1A2E" points="1052.0797,758.6016,1158.7203,758.6016,1170.7203,770.6016,1158.7203,782.6016,1052.0797,782.6016,1040.0797,770.6016,1052.0797,758.6016" style="stroke:#D97757;stroke-width:1;"/><text fill="#F0EFE8" font-family="'Inter, Helvetica, Arial, sans-serif'" font-size="14" lengthAdjust="spacing" textLength="106.6406" x="1052.0797" y="775.4482">Running tasks?</text><text fill="#D97757" font-family="'Inter, Helvetica, Arial, sans-serif'" font-size="14" lengthAdjust="spacing" textLength="24.1924" x="1015.8873" y="767.2998">yes</text><text fill="#D97757" font-family="'Inter, Helvetica, Arial, sans-serif'" font-size="14" lengthAdjust="spacing" textLength="17.4385" x="1170.7203" y="767.2998">no</text><rect fill="#1A1A2E" height="52.5938" rx="12.5" ry="12.5" style="stroke:#3D3D5C;stroke-width:1;" width="133.9756" x="957.815" y="792.6016"/><text fill="#F0EFE8" font-family="'Inter, Helvetica, Arial, sans-serif'" font-size="14" lengthAdjust="spacing" textLength="113.9756" x="967.815" y="815.5967">Wait for running</text><text fill="#F0EFE8" font-family="'Inter, Helvetica, Arial, sans-serif'" font-size="14" lengthAdjust="spacing" textLength="97.4668" x="967.815" y="831.8936">tasks to finish</text><rect fill="#1A1A2E" height="52.5938" rx="12.5" ry="12.5" style="stroke:#3D3D5C;stroke-width:1;" width="148.4131" x="1111.7906" y="792.6016"/><text fill="#F0EFE8" font-family="'Inter, Helvetica, Arial, sans-serif'" font-size="14" lengthAdjust="spacing" textLength="128.4131" x="1121.7906" y="815.5967">All tasks complete</text><text fill="#F0EFE8" font-family="'Inter, Helvetica, Arial, sans-serif'" font-size="14" lengthAdjust="spacing" textLength="99.4971" x="1121.7906" y="831.8936">or deadlocked</text><polygon fill="#1A1A2E" points="1059.0318,708.4531,1151.7681,708.4531,1163.7681,720.4531,1151.7681,732.4531,1059.0318,732.4531,1047.0318,720.4531,1059.0318,708.4531" style="stroke:#D97757;stroke-width:1;"/><text fill="#D97757" font-family="'Inter, Helvetica, Arial, sans-serif'" font-size="14" lengthAdjust="spacing" textLength="34.9248" x="1109.4" y="745.4482">none</text><text fill="#F0EFE8" font-family="'Inter, Helvetica, Arial, sans-serif'" font-size="14" lengthAdjust="spacing" textLength="92.7363" x="1059.0318" y="725.2998">Ready tasks?</text><text fill="#D97757" font-family="'Inter, Helvetica, Arial, sans-serif'" font-size="14" lengthAdjust="spacing" textLength="40.127" x="1163.7681" y="717.1514">found</text><polygon fill="#1A1A2E" points="1105.4,865.1953,1117.4,877.1953,1105.4,889.1953,1093.4,877.1953,1105.4,865.1953" style="stroke:#D97757;stroke-width:1;"/><path d="M1220.9825,899.1953 L1220.9825,938.0273 L1200.9825,942.0273 L1220.9825,946.0273 L1220.9825,984.8594 A0,0 0 0 0 1220.9825,984.8594 L1429.7398,984.8594 A0,0 0 0 0 1429.7398,984.8594 L1429.7398,909.1953 L1419.7398,899.1953 L1220.9825,899.1953 A0,0 0 0 0 1220.9825,899.1953" fill="#1A1A2E" style="stroke:#3D3D5C;stroke-width:1;"/><path d="M1419.7398,899.1953 L1419.7398,909.1953 L1429.7398,909.1953 L1419.7398,899.1953" fill="#1A1A2E" style="stroke:#3D3D5C;stroke-width:1;"/><text fill="#7C7C9E" font-family="'Inter, Helvetica, Arial, sans-serif'" font-size="13" lengthAdjust="spacing" textLength="139.5024" x="1226.9825" y="916.2622">Progressive ramp-up:</text><text fill="#7C7C9E" font-family="'Inter, Helvetica, Arial, sans-serif'" font-size="13" lengthAdjust="spacing" textLength="47.9375" x="1226.9825" y="931.395">&#8226; Start:</text><text fill="#7C7C9E" font-family="'Inter, Helvetica, Arial, sans-serif'" font-size="13" font-weight="700" lengthAdjust="spacing" textLength="55.9355" x="1279.0523" y="931.395">1 agent</text><text fill="#7C7C9E" font-family="'Inter, Helvetica, Arial, sans-serif'" font-size="13" lengthAdjust="spacing" textLength="89.6353" x="1226.9825" y="946.5278">&#8226; On success:</text><text fill="#7C7C9E" font-family="'Inter, Helvetica, Arial, sans-serif'" font-size="13" font-weight="700" lengthAdjust="spacing" textLength="50.0703" x="1320.7501" y="946.5278">double</text><text fill="#7C7C9E" font-family="'Inter, Helvetica, Arial, sans-serif'" font-size="13" lengthAdjust="spacing" textLength="80.1328" x="1226.9825" y="961.6606">&#8226; On failure:</text><text fill="#7C7C9E" font-family="'Inter, Helvetica, Arial, sans-serif'" font-size="13" font-weight="700" lengthAdjust="spacing" textLength="39.7744" x="1311.2476" y="961.6606">halve</text><text fill="#7C7C9E" font-family="'Inter, Helvetica, Arial, sans-serif'" font-size="13" lengthAdjust="spacing" textLength="187.7573" x="1226.9825" y="976.7935">&#8226; Cap at recommended_max</text><rect fill="#1A1A2E" height="52.5938" rx="12.5" ry="12.5" style="stroke:#3D3D5C;stroke-width:1;" width="191.165" x="1009.8174" y="915.7305"/><text fill="#F0EFE8" font-family="'Inter, Helvetica, Arial, sans-serif'" font-size="14" lengthAdjust="spacing" textLength="65.3857" x="1019.8174" y="938.7256">Calculate</text><text fill="#F0EFE8" font-family="'Inter, Helvetica, Arial, sans-serif'" font-size="14" font-weight="700" lengthAdjust="spacing" textLength="80.0762" x="1089.6534" y="938.7256">batch size</text><text fill="#F0EFE8" font-family="'Inter, Helvetica, Arial, sans-serif'" font-size="14" lengthAdjust="spacing" textLength="171.165" x="1019.8174" y="955.0225">via progressive ramp-up</text><rect fill="#D97757" height="6" rx="2.5" ry="2.5" style="stroke:#D97757;stroke-width:1;" width="609.4727" x="800.6636" y="1004.8594"/><rect fill="#1A1A2E" height="52.5938" rx="12.5" ry="12.5" style="stroke:#3D3D5C;stroke-width:1;" width="174.499" x="814.6636" y="1030.8594"/><text fill="#F0EFE8" font-family="'Inter, Helvetica, Arial, sans-serif'" font-size="14" lengthAdjust="spacing" textLength="61.4893" x="824.6636" y="1053.8545">Dispatch</text><text fill="#F0EFE8" font-family="'Inter, Helvetica, Arial, sans-serif'" font-size="14" font-weight="700" lengthAdjust="spacing" textLength="88.5596" x="890.6031" y="1053.8545">subagent 1</text><text fill="#F0EFE8" font-family="'Inter, Helvetica, Arial, sans-serif'" font-size="14" lengthAdjust="spacing" textLength="143.9238" x="824.6636" y="1070.1514">(claude -p with task)</text><rect fill="#1A1A2E" height="36.2969" rx="12.5" ry="12.5" style="stroke:#3D3D5C;stroke-width:1;" width="174.499" x="1017.1627" y="1039.0078"/><text fill="#F0EFE8" font-family="'Inter, Helvetica, Arial, sans-serif'" font-size="14" lengthAdjust="spacing" textLength="61.4893" x="1027.1627" y="1062.0029">Dispatch</text><text fill="#F0EFE8" font-family="'Inter, Helvetica, Arial, sans-serif'" font-size="14" font-weight="700" lengthAdjust="spacing" textLength="88.5596" x="1093.1021" y="1062.0029">subagent 2</text><rect fill="#1A1A2E" height="52.5938" rx="12.5" ry="12.5" style="stroke:#3D3D5C;stroke-width:1;" width="176.4746" x="1219.6617" y="1030.8594"/><text fill="#F0EFE8" font-family="'Inter, Helvetica, Arial, sans-serif'" font-size="14" lengthAdjust="spacing" textLength="61.4893" x="1229.6617" y="1053.8545">Dispatch</text><text fill="#F0EFE8" font-family="'Inter, Helvetica, Arial, sans-serif'" font-size="14" font-weight="700" lengthAdjust="spacing" textLength="90.5352" x="1295.6011" y="1053.8545">subagent N</text><text fill="#F0EFE8" font-family="'Inter, Helvetica, Arial, sans-serif'" font-size="14" lengthAdjust="spacing" textLength="122.7598" x="1229.6617" y="1070.1514">(up to batch size)</text><rect fill="#D97757" height="6" rx="2.5" ry="2.5" style="stroke:#D97757;stroke-width:1;" width="609.4727" x="800.6636" y="1103.4531"/><rect fill="#1A1A2E" height="52.5938" rx="12.5" ry="12.5" style="stroke:#3D3D5C;stroke-width:1;" width="195.1436" x="1007.8282" y="1129.4531"/><text fill="#F0EFE8" font-family="'Inter, Helvetica, Arial, sans-serif'" font-size="14" lengthAdjust="spacing" textLength="136.917" x="1017.8282" y="1152.4482">Collect results from</text><text fill="#F0EFE8" font-family="'Inter, Helvetica, Arial, sans-serif'" font-size="14" lengthAdjust="spacing" textLength="175.1436" x="1017.8282" y="1168.7451">all dispatched subagents</text><rect fill="#1A1A2E" height="52.5938" rx="12.5" ry="12.5" style="stroke:#3D3D5C;stroke-width:1;" width="198.1377" x="1006.3311" y="1202.0469"/><text fill="#F0EFE8" font-family="'Inter, Helvetica, Arial, sans-serif'" font-size="14" lengthAdjust="spacing" textLength="50.7021" x="1016.3311" y="1225.042">Update</text><text fill="#F0EFE8" font-family="'Inter, Helvetica, Arial, sans-serif'" font-size="14" font-weight="700" lengthAdjust="spacing" textLength="75.4619" x="1071.4835" y="1225.042">Task DAG</text><text fill="#F0EFE8" font-family="'Inter, Helvetica, Arial, sans-serif'" font-size="14" lengthAdjust="spacing" textLength="178.1377" x="1016.3311" y="1241.3389">(mark completed / failed)</text><polygon fill="#1A1A2E" points="1042.7247,1274.6406,1168.0753,1274.6406,1180.0753,1286.6406,1168.0753,1298.6406,1042.7247,1298.6406,1030.7247,1286.6406,1042.7247,1274.6406" style="stroke:#D97757;stroke-width:1;"/><text fill="#F0EFE8" font-family="'Inter, Helvetica, Arial, sans-serif'" font-size="14" lengthAdjust="spacing" textLength="125.3506" x="1042.7247" y="1291.4873">Engineering task?</text><text fill="#D97757" font-family="'Inter, Helvetica, Arial, sans-serif'" font-size="14" lengthAdjust="spacing" textLength="24.1924" x="1006.5323" y="1283.3389">yes</text><text fill="#D97757" font-family="'Inter, Helvetica, Arial, sans-serif'" font-size="14" lengthAdjust="spacing" textLength="17.4385" x="1180.0753" y="1283.3389">no</text><rect fill="#1A1A2E" height="52.5938" rx="12.5" ry="12.5" style="stroke:#3D3D5C;stroke-width:1;" width="208.7061" x="821.59" y="1308.6406"/><text fill="#F0EFE8" font-family="'Inter, Helvetica, Arial, sans-serif'" font-size="14" font-weight="700" lengthAdjust="spacing" textLength="142.9121" x="831.59" y="1331.6357">Code Review Gate</text><text fill="#F0EFE8" font-family="'Inter, Helvetica, Arial, sans-serif'" font-size="14" lengthAdjust="spacing" textLength="188.7061" x="831.59" y="1347.9326">Subagent reviews changes</text><polygon fill="#1A1A2E" points="869.9362,1381.2344,981.9498,1381.2344,993.9498,1393.2344,981.9498,1405.2344,869.9362,1405.2344,857.9362,1393.2344,869.9362,1381.2344" style="stroke:#D97757;stroke-width:1;"/><text fill="#F0EFE8" font-family="'Inter, Helvetica, Arial, sans-serif'" font-size="14" lengthAdjust="spacing" textLength="112.0137" x="869.9362" y="1398.0811">Review passed?</text><text fill="#D97757" font-family="'Inter, Helvetica, Arial, sans-serif'" font-size="14" lengthAdjust="spacing" textLength="17.4385" x="840.4977" y="1389.9326">no</text><text fill="#D97757" font-family="'Inter, Helvetica, Arial, sans-serif'" font-size="14" lengthAdjust="spacing" textLength="24.1924" x="993.9498" y="1389.9326">yes</text><rect fill="#1A1A2E" height="36.2969" rx="12.5" ry="12.5" style="stroke:#3D3D5C;stroke-width:1;" width="173.9795" x="672.2952" y="1415.2344"/><text fill="#F0EFE8" font-family="'Inter, Helvetica, Arial, sans-serif'" font-size="14" lengthAdjust="spacing" textLength="153.9795" x="682.2952" y="1438.2295">Increment retry count</text><polygon fill="#1A1A2E" points="716.1091,1486.5313,802.4607,1486.5313,814.4607,1498.5313,802.4607,1510.5313,716.1091,1510.5313,704.1091,1498.5313,716.1091,1486.5313" style="stroke:#D97757;stroke-width:1;"/><text fill="#F0EFE8" font-family="'Inter, Helvetica, Arial, sans-serif'" font-size="14" lengthAdjust="spacing" textLength="86.3516" x="716.1091" y="1503.3779">Retries &lt; 3?</text><text fill="#D97757" font-family="'Inter, Helvetica, Arial, sans-serif'" font-size="14" lengthAdjust="spacing" textLength="24.1924" x="679.9167" y="1495.2295">yes</text><text fill="#D97757" font-family="'Inter, Helvetica, Arial, sans-serif'" font-size="14" lengthAdjust="spacing" textLength="17.4385" x="814.4607" y="1495.2295">no</text><rect fill="#1A1A2E" height="52.5938" rx="12.5" ry="12.5" style="stroke:#3D3D5C;stroke-width:1;" width="229.5898" x="521.8696" y="1570.6797"/><text fill="#F0EFE8" font-family="'Inter, Helvetica, Arial, sans-serif'" font-size="14" lengthAdjust="spacing" textLength="47.6875" x="531.8696" y="1593.6748">Enable</text><text fill="#F0EFE8" font-family="'Inter, Helvetica, Arial, sans-serif'" font-size="14" font-weight="700" lengthAdjust="spacing" textLength="154.7793" x="584.0073" y="1593.6748">debugging protocol</text><text fill="#F0EFE8" font-family="'Inter, Helvetica, Arial, sans-serif'" font-size="14" lengthAdjust="spacing" textLength="209.5898" x="531.8696" y="1609.9717">(extra context, error analysis)</text><polygon fill="#1A1A2E" points="593.3794,1520.5313,679.9497,1520.5313,691.9497,1532.5313,679.9497,1544.5313,593.3794,1544.5313,581.3794,1532.5313,593.3794,1520.5313" style="stroke:#D97757;stroke-width:1;"/><text fill="#D97757" font-family="'Inter, Helvetica, Arial, sans-serif'" font-size="14" lengthAdjust="spacing" textLength="24.1924" x="640.6646" y="1557.5264">yes</text><text fill="#F0EFE8" font-family="'Inter, Helvetica, Arial, sans-serif'" font-size="14" lengthAdjust="spacing" textLength="86.5703" x="593.3794" y="1537.3779">Retry &gt;= 2?</text><text fill="#D97757" font-family="'Inter, Helvetica, Arial, sans-serif'" font-size="14" lengthAdjust="spacing" textLength="17.4385" x="691.9497" y="1529.2295">no</text><polygon fill="#1A1A2E" points="636.6646,1643.2734,648.6646,1655.2734,636.6646,1667.2734,624.6646,1655.2734,636.6646,1643.2734" style="stroke:#D97757;stroke-width:1;"/><rect fill="#1A1A2E" height="36.2969" rx="12.5" ry="12.5" style="stroke:#3D3D5C;stroke-width:1;" width="121.1719" x="576.0786" y="1687.2734"/><text fill="#F0EFE8" font-family="'Inter, Helvetica, Arial, sans-serif'" font-size="14" lengthAdjust="spacing" textLength="101.1719" x="586.0786" y="1710.2686">Re-queue task</text><rect fill="#1A1A2E" height="52.5938" rx="12.5" ry="12.5" style="stroke:#3D3D5C;stroke-width:1;" width="176.8916" x="793.4595" y="1520.5313"/><text fill="#F0EFE8" font-family="'Inter, Helvetica, Arial, sans-serif'" font-size="14" lengthAdjust="spacing" textLength="68.4414" x="803.4595" y="1543.5264">Mark task</text><text fill="#F0EFE8" font-family="'Inter, Helvetica, Arial, sans-serif'" font-size="14" font-weight="700" lengthAdjust="spacing" textLength="44.6523" x="876.3511" y="1543.5264">failed</text><text fill="#F0EFE8" font-family="'Inter, Helvetica, Arial, sans-serif'" font-size="14" lengthAdjust="spacing" textLength="156.8916" x="803.4595" y="1559.8232">Log for manual review</text><polygon fill="#1A1A2E" points="759.2849,1729.5703,771.2849,1741.5703,759.2849,1753.5703,747.2849,1741.5703,759.2849,1729.5703" style="stroke:#D97757;stroke-width:1;"/><rect fill="#1A1A2E" height="52.5938" rx="12.5" ry="12.5" style="stroke:#3D3D5C;stroke-width:1;" width="184.5" x="1000.3511" y="1415.2344"/><text fill="#F0EFE8" font-family="'Inter, Helvetica, Arial, sans-serif'" font-size="14" lengthAdjust="spacing" textLength="32.5322" x="1010.3511" y="1438.2295">Task</text><text fill="#F0EFE8" font-family="'Inter, Helvetica, Arial, sans-serif'" font-size="14" font-weight="700" lengthAdjust="spacing" textLength="83.0293" x="1047.3335" y="1438.2295">completed</text><text fill="#F0EFE8" font-family="'Inter, Helvetica, Arial, sans-serif'" font-size="14" lengthAdjust="spacing" textLength="164.5" x="1010.3511" y="1454.5264">Ramp-up: double batch</text><polygon fill="#1A1A2E" points="925.943,1759.5703,937.943,1771.5703,925.943,1783.5703,913.943,1771.5703,925.943,1759.5703" style="stroke:#D97757;stroke-width:1;"/><rect fill="#1A1A2E" height="36.2969" rx="12.5" ry="12.5" style="stroke:#3D3D5C;stroke-width:1;" width="140.0117" x="1214.8511" y="1308.6406"/><text fill="#F0EFE8" font-family="'Inter, Helvetica, Arial, sans-serif'" font-size="14" lengthAdjust="spacing" textLength="32.5322" x="1224.8511" y="1331.6357">Task</text><text fill="#F0EFE8" font-family="'Inter, Helvetica, Arial, sans-serif'" font-size="14" font-weight="700" lengthAdjust="spacing" textLength="83.0293" x="1261.8335" y="1331.6357">completed</text><polygon fill="#1A1A2E" points="1105.4,1789.5703,1117.4,1801.5703,1105.4,1813.5703,1093.4,1801.5703,1105.4,1789.5703" style="stroke:#D97757;stroke-width:1;"/><polygon fill="#1A1A2E" points="1105.4,341.6914,1117.4,353.6914,1105.4,365.6914,1093.4,353.6914,1105.4,341.6914" style="stroke:#D97757;stroke-width:1;"/><polygon fill="#1A1A2E" points="1025.8467,1833.5703,1184.9532,1833.5703,1196.9532,1845.5703,1184.9532,1857.5703,1025.8467,1857.5703,1013.8467,1845.5703,1025.8467,1833.5703" style="stroke:#D97757;stroke-width:1;"/><text fill="#F0EFE8" font-family="'Inter, Helvetica, Arial, sans-serif'" font-size="14" lengthAdjust="spacing" textLength="159.1064" x="1025.8467" y="1850.417">More tasks remaining?</text><text fill="#D97757" font-family="'Inter, Helvetica, Arial, sans-serif'" font-size="14" lengthAdjust="spacing" textLength="24.1924" x="1196.9532" y="1842.2686">yes</text><polygon fill="#1A1A2E" points="1105.4,1877.5703,1117.4,1889.5703,1105.4,1901.5703,1093.4,1889.5703,1105.4,1877.5703" style="stroke:#D97757;stroke-width:1;"/><line style="stroke:#000000;stroke-width:1;" x1="506.8696" x2="506.8696" y1="58.8828" y2="2088.7578"/><rect fill="#1A1A2E" height="52.5938" rx="12.5" ry="12.5" style="stroke:#3D3D5C;stroke-width:1;" width="243.9111" x="1487.1114" y="1921.5703"/><text fill="#F0EFE8" font-family="'Inter, Helvetica, Arial, sans-serif'" font-size="14" lengthAdjust="spacing" textLength="65.3857" x="1497.1114" y="1944.5654">Generate</text><text fill="#F0EFE8" font-family="'Inter, Helvetica, Arial, sans-serif'" font-size="14" font-weight="700" lengthAdjust="spacing" textLength="96.9609" x="1566.9473" y="1944.5654">Final Report</text><text fill="#F0EFE8" font-family="'Inter, Helvetica, Arial, sans-serif'" font-size="14" lengthAdjust="spacing" textLength="223.9111" x="1497.1114" y="1960.8623">(summary of all tasks, pass/fail)</text><rect fill="#1A1A2E" height="52.5938" rx="12.5" ry="12.5" style="stroke:#3D3D5C;stroke-width:1;" width="220.4229" x="1498.8555" y="1994.1641"/><text fill="#F0EFE8" font-family="'Inter, Helvetica, Arial, sans-serif'" font-size="14" lengthAdjust="spacing" textLength="35.2598" x="1508.8555" y="2017.1592">Send</text><text fill="#F0EFE8" font-family="'Inter, Helvetica, Arial, sans-serif'" font-size="14" font-weight="700" lengthAdjust="spacing" textLength="90.7881" x="1548.5655" y="2017.1592">notification</text><text fill="#F0EFE8" font-family="'Inter, Helvetica, Arial, sans-serif'" font-size="14" lengthAdjust="spacing" textLength="200.4229" x="1508.8555" y="2033.4561">(Telegram / terminal output)</text><ellipse cx="1609.067" cy="2077.7578" fill="none" rx="11" ry="11" style="stroke:#000000;stroke-width:1;"/><ellipse cx="1609.067" cy="2077.7578" fill="#FFFFFF" rx="6" ry="6" style="stroke:#000000;stroke-width:1;"/><line style="stroke:#000000;stroke-width:1;" x1="1481.1114" x2="1481.1114" y1="58.8828" y2="2088.7578"/><line style="stroke:#000000;stroke-width:1;" x1="1735.0225" x2="1735.0225" y1="58.8828" y2="2088.7578"/><line style="stroke:#7C7C9E;stroke-width:1;" x1="166.1396" x2="166.1396" y1="102.5078" y2="122.5078"/><polygon fill="#7C7C9E" points="162.1396,112.5078,166.1396,122.5078,170.1396,112.5078,166.1396,116.5078" style="stroke:#7C7C9E;stroke-width:1;"/><line style="stroke:#7C7C9E;stroke-width:1;" x1="166.1396" x2="166.1396" y1="175.1016" y2="195.1016"/><polygon fill="#7C7C9E" points="162.1396,185.1016,166.1396,195.1016,170.1396,185.1016,166.1396,189.1016" style="stroke:#7C7C9E;stroke-width:1;"/><line style="stroke:#7C7C9E;stroke-width:1;" x1="166.1396" x2="166.1396" y1="247.6953" y2="267.6953"/><polygon fill="#7C7C9E" points="162.1396,257.6953,166.1396,267.6953,170.1396,257.6953,166.1396,261.6953" style="stroke:#7C7C9E;stroke-width:1;"/><line style="stroke:#7C7C9E;stroke-width:1;" x1="907.0933" x2="907.0933" y1="506.9688" y2="543.2656"/><polygon fill="#7C7C9E" points="903.0933,533.2656,907.0933,543.2656,911.0933,533.2656,907.0933,537.2656" style="stroke:#7C7C9E;stroke-width:1;"/><line style="stroke:#7C7C9E;stroke-width:1;" x1="907.0933" x2="907.0933" y1="595.8594" y2="615.8594"/><polygon fill="#7C7C9E" points="903.0933,605.8594,907.0933,615.8594,911.0933,605.8594,907.0933,609.8594" style="stroke:#7C7C9E;stroke-width:1;"/><line style="stroke:#7C7C9E;stroke-width:1;" x1="1100.0645" x2="1100.0645" y1="506.9688" y2="526.9688"/><polygon fill="#7C7C9E" points="1096.0645,516.9688,1100.0645,526.9688,1104.0645,516.9688,1100.0645,520.9688" style="stroke:#7C7C9E;stroke-width:1;"/><line style="stroke:#7C7C9E;stroke-width:1;" x1="1100.0645" x2="1100.0645" y1="579.5625" y2="615.8594"/><polygon fill="#7C7C9E" points="1096.0645,605.8594,1100.0645,615.8594,1104.0645,605.8594,1100.0645,609.8594" style="stroke:#7C7C9E;stroke-width:1;"/><line style="stroke:#7C7C9E;stroke-width:1;" x1="984.045" x2="1070.7354" y1="494.9688" y2="494.9688"/><polygon fill="#7C7C9E" points="1060.7354,490.9688,1070.7354,494.9688,1060.7354,498.9688,1064.7354,494.9688" style="stroke:#7C7C9E;stroke-width:1;"/><line style="stroke:#7C7C9E;stroke-width:1;" x1="1105.4" x2="1105.4" y1="454.582" y2="467.9688"/><line style="stroke:#7C7C9E;stroke-width:1;" x1="1105.4" x2="907.0933" y1="467.9688" y2="467.9688"/><line style="stroke:#7C7C9E;stroke-width:1;" x1="907.0933" x2="907.0933" y1="467.9688" y2="482.9688"/><polygon fill="#7C7C9E" points="903.0933,472.9688,907.0933,482.9688,911.0933,472.9688,907.0933,476.9688" style="stroke:#7C7C9E;stroke-width:1;"/><line style="stroke:#7C7C9E;stroke-width:1;" x1="1129.3936" x2="1298.3712" y1="494.9688" y2="494.9688"/><line style="stroke:#7C7C9E;stroke-width:1;" x1="1298.3712" x2="1298.3712" y1="494.9688" y2="546.2656"/><polygon fill="#7C7C9E" points="1294.3712,536.2656,1298.3712,546.2656,1302.3712,536.2656,1298.3712,540.2656" style="stroke:#7C7C9E;stroke-width:1;"/><line style="stroke:#7C7C9E;stroke-width:1;" x1="1298.3712" x2="1298.3712" y1="582.5625" y2="615.8594"/><polygon fill="#7C7C9E" points="1294.3712,605.8594,1298.3712,615.8594,1302.3712,605.8594,1298.3712,609.8594" style="stroke:#7C7C9E;stroke-width:1;"/><line style="stroke:#7C7C9E;stroke-width:1;" x1="907.0933" x2="1298.3712" y1="615.8594" y2="615.8594"/><line style="stroke:#7C7C9E;stroke-width:1;" x1="1105.4" x2="1105.4" y1="615.8594" y2="635.8594"/><polygon fill="#7C7C9E" points="1101.4,625.8594,1105.4,635.8594,1109.4,625.8594,1105.4,629.8594" style="stroke:#7C7C9E;stroke-width:1;"/><line style="stroke:#7C7C9E;stroke-width:1;" x1="1185.9971" x2="1185.9971" y1="845.1953" y2="850.1953"/><line style="stroke:#7C7C9E;stroke-width:1;" x1="1185.9971" x2="511.8696" y1="850.1953" y2="850.1953"/><line style="stroke:#7C7C9E;stroke-width:1;" x1="511.8696" x2="511.8696" y1="850.1953" y2="1889.5703"/><line style="stroke:#7C7C9E;stroke-width:1;" x1="511.8696" x2="1093.4" y1="1889.5703" y2="1889.5703"/><polygon fill="#7C7C9E" points="1083.4,1885.5703,1093.4,1889.5703,1083.4,1893.5703,1087.4,1889.5703" style="stroke:#7C7C9E;stroke-width:1;"/><line style="stroke:#7C7C9E;stroke-width:1;" x1="1040.0797" x2="1024.8028" y1="770.6016" y2="770.6016"/><line style="stroke:#7C7C9E;stroke-width:1;" x1="1024.8028" x2="1024.8028" y1="770.6016" y2="792.6016"/><polygon fill="#7C7C9E" points="1020.8028,782.6016,1024.8028,792.6016,1028.8028,782.6016,1024.8028,786.6016" style="stroke:#7C7C9E;stroke-width:1;"/><line style="stroke:#7C7C9E;stroke-width:1;" x1="1170.7203" x2="1185.9971" y1="770.6016" y2="770.6016"/><line style="stroke:#7C7C9E;stroke-width:1;" x1="1185.9971" x2="1185.9971" y1="770.6016" y2="792.6016"/><polygon fill="#7C7C9E" points="1181.9971,782.6016,1185.9971,792.6016,1189.9971,782.6016,1185.9971,786.6016" style="stroke:#7C7C9E;stroke-width:1;"/><line style="stroke:#7C7C9E;stroke-width:1;" x1="1024.8028" x2="1024.8028" y1="845.1953" y2="850.1953"/><line style="stroke:#7C7C9E;stroke-width:1;" x1="1024.8028" x2="1105.4" y1="850.1953" y2="850.1953"/><line style="stroke:#7C7C9E;stroke-width:1;" x1="1105.4" x2="1105.4" y1="850.1953" y2="865.1953"/><polygon fill="#7C7C9E" points="1101.4,855.1953,1105.4,865.1953,1109.4,855.1953,1105.4,859.1953" style="stroke:#7C7C9E;stroke-width:1;"/><line style="stroke:#7C7C9E;stroke-width:1;" x1="1105.4" x2="1105.4" y1="732.4531" y2="758.6016"/><polygon fill="#7C7C9E" points="1101.4,748.6016,1105.4,758.6016,1109.4,748.6016,1105.4,752.6016" style="stroke:#7C7C9E;stroke-width:1;"/><line style="stroke:#7C7C9E;stroke-width:1;" x1="1163.7681" x2="1280.2037" y1="720.4531" y2="720.4531"/><polygon fill="#7C7C9E" points="1276.2037,812.3984,1280.2037,822.3984,1284.2037,812.3984,1280.2037,816.3984" style="stroke:#7C7C9E;stroke-width:1;"/><line style="stroke:#7C7C9E;stroke-width:1;" x1="1280.2037" x2="1280.2037" y1="720.4531" y2="877.1953"/><line style="stroke:#7C7C9E;stroke-width:1;" x1="1280.2037" x2="1117.4" y1="877.1953" y2="877.1953"/><polygon fill="#7C7C9E" points="1127.4,873.1953,1117.4,877.1953,1127.4,881.1953,1123.4,877.1953" style="stroke:#7C7C9E;stroke-width:1;"/><line style="stroke:#7C7C9E;stroke-width:1;" x1="1105.4" x2="1105.4" y1="688.4531" y2="708.4531"/><polygon fill="#7C7C9E" points="1101.4,698.4531,1105.4,708.4531,1109.4,698.4531,1105.4,702.4531" style="stroke:#7C7C9E;stroke-width:1;"/><line style="stroke:#7C7C9E;stroke-width:1;" x1="1105.4" x2="1105.4" y1="889.1953" y2="915.7305"/><polygon fill="#7C7C9E" points="1101.4,905.7305,1105.4,915.7305,1109.4,905.7305,1105.4,909.7305" style="stroke:#7C7C9E;stroke-width:1;"/><line style="stroke:#7C7C9E;stroke-width:1;" x1="901.9131" x2="901.9131" y1="1010.8594" y2="1030.8594"/><polygon fill="#7C7C9E" points="897.9131,1020.8594,901.9131,1030.8594,905.9131,1020.8594,901.9131,1024.8594" style="stroke:#7C7C9E;stroke-width:1;"/><line style="stroke:#7C7C9E;stroke-width:1;" x1="1104.4122" x2="1104.4122" y1="1010.8594" y2="1039.0078"/><polygon fill="#7C7C9E" points="1100.4122,1029.0078,1104.4122,1039.0078,1108.4122,1029.0078,1104.4122,1033.0078" style="stroke:#7C7C9E;stroke-width:1;"/><line style="stroke:#7C7C9E;stroke-width:1;" x1="1307.899" x2="1307.899" y1="1010.8594" y2="1030.8594"/><polygon fill="#7C7C9E" points="1303.899,1020.8594,1307.899,1030.8594,1311.899,1020.8594,1307.899,1024.8594" style="stroke:#7C7C9E;stroke-width:1;"/><line style="stroke:#7C7C9E;stroke-width:1;" x1="901.9131" x2="901.9131" y1="1083.4531" y2="1103.4531"/><polygon fill="#7C7C9E" points="897.9131,1093.4531,901.9131,1103.4531,905.9131,1093.4531,901.9131,1097.4531" style="stroke:#7C7C9E;stroke-width:1;"/><line style="stroke:#7C7C9E;stroke-width:1;" x1="1104.4122" x2="1104.4122" y1="1075.3047" y2="1103.4531"/><polygon fill="#7C7C9E" points="1100.4122,1093.4531,1104.4122,1103.4531,1108.4122,1093.4531,1104.4122,1097.4531" style="stroke:#7C7C9E;stroke-width:1;"/><line style="stroke:#7C7C9E;stroke-width:1;" x1="1307.899" x2="1307.899" y1="1083.4531" y2="1103.4531"/><polygon fill="#7C7C9E" points="1303.899,1093.4531,1307.899,1103.4531,1311.899,1093.4531,1307.899,1097.4531" style="stroke:#7C7C9E;stroke-width:1;"/><line style="stroke:#7C7C9E;stroke-width:1;" x1="1105.4" x2="1105.4" y1="968.3242" y2="1004.8594"/><polygon fill="#7C7C9E" points="1101.4,994.8594,1105.4,1004.8594,1109.4,994.8594,1105.4,998.8594" style="stroke:#7C7C9E;stroke-width:1;"/><line style="stroke:#7C7C9E;stroke-width:1;" x1="1105.4" x2="1105.4" y1="1109.4531" y2="1129.4531"/><polygon fill="#7C7C9E" points="1101.4,1119.4531,1105.4,1129.4531,1109.4,1119.4531,1105.4,1123.4531" style="stroke:#7C7C9E;stroke-width:1;"/><line style="stroke:#7C7C9E;stroke-width:1;" x1="1105.4" x2="1105.4" y1="1182.0469" y2="1202.0469"/><polygon fill="#7C7C9E" points="1101.4,1192.0469,1105.4,1202.0469,1109.4,1192.0469,1105.4,1196.0469" style="stroke:#7C7C9E;stroke-width:1;"/><line style="stroke:#7C7C9E;stroke-width:1;" x1="636.6646" x2="636.6646" y1="1544.5313" y2="1570.6797"/><polygon fill="#7C7C9E" points="632.6646,1560.6797,636.6646,1570.6797,640.6646,1560.6797,636.6646,1564.6797" style="stroke:#7C7C9E;stroke-width:1;"/><line style="stroke:#7C7C9E;stroke-width:1;" x1="691.9497" x2="761.4595" y1="1532.5313" y2="1532.5313"/><polygon fill="#7C7C9E" points="757.4595,1586.9766,761.4595,1596.9766,765.4595,1586.9766,761.4595,1590.9766" style="stroke:#7C7C9E;stroke-width:1;"/><line style="stroke:#7C7C9E;stroke-width:1;" x1="761.4595" x2="761.4595" y1="1532.5313" y2="1655.2734"/><line style="stroke:#7C7C9E;stroke-width:1;" x1="761.4595" x2="648.6646" y1="1655.2734" y2="1655.2734"/><polygon fill="#7C7C9E" points="658.6646,1651.2734,648.6646,1655.2734,658.6646,1659.2734,654.6646,1655.2734" style="stroke:#7C7C9E;stroke-width:1;"/><line style="stroke:#7C7C9E;stroke-width:1;" x1="636.6646" x2="636.6646" y1="1623.2734" y2="1643.2734"/><polygon fill="#7C7C9E" points="632.6646,1633.2734,636.6646,1643.2734,640.6646,1633.2734,636.6646,1637.2734" style="stroke:#7C7C9E;stroke-width:1;"/><line style="stroke:#7C7C9E;stroke-width:1;" x1="636.6646" x2="636.6646" y1="1667.2734" y2="1687.2734"/><polygon fill="#7C7C9E" points="632.6646,1677.2734,636.6646,1687.2734,640.6646,1677.2734,636.6646,1681.2734" style="stroke:#7C7C9E;stroke-width:1;"/><line style="stroke:#7C7C9E;stroke-width:1;" x1="704.1091" x2="636.6646" y1="1498.5313" y2="1498.5313"/><line style="stroke:#7C7C9E;stroke-width:1;" x1="636.6646" x2="636.6646" y1="1498.5313" y2="1520.5313"/><polygon fill="#7C7C9E" points="632.6646,1510.5313,636.6646,1520.5313,640.6646,1510.5313,636.6646,1514.5313" style="stroke:#7C7C9E;stroke-width:1;"/><line style="stroke:#7C7C9E;stroke-width:1;" x1="814.4607" x2="881.9053" y1="1498.5313" y2="1498.5313"/><line style="stroke:#7C7C9E;stroke-width:1;" x1="881.9053" x2="881.9053" y1="1498.5313" y2="1520.5313"/><polygon fill="#7C7C9E" points="877.9053,1510.5313,881.9053,1520.5313,885.9053,1510.5313,881.9053,1514.5313" style="stroke:#7C7C9E;stroke-width:1;"/><line style="stroke:#7C7C9E;stroke-width:1;" x1="636.6646" x2="636.6646" y1="1723.5703" y2="1741.5703"/><line style="stroke:#7C7C9E;stroke-width:1;" x1="636.6646" x2="747.2849" y1="1741.5703" y2="1741.5703"/><polygon fill="#7C7C9E" points="737.2849,1737.5703,747.2849,1741.5703,737.2849,1745.5703,741.2849,1741.5703" style="stroke:#7C7C9E;stroke-width:1;"/><line style="stroke:#7C7C9E;stroke-width:1;" x1="881.9053" x2="881.9053" y1="1573.125" y2="1741.5703"/><line style="stroke:#7C7C9E;stroke-width:1;" x1="881.9053" x2="771.2849" y1="1741.5703" y2="1741.5703"/><polygon fill="#7C7C9E" points="781.2849,1737.5703,771.2849,1741.5703,781.2849,1745.5703,777.2849,1741.5703" style="stroke:#7C7C9E;stroke-width:1;"/><line style="stroke:#7C7C9E;stroke-width:1;" x1="759.2849" x2="759.2849" y1="1451.5313" y2="1486.5313"/><polygon fill="#7C7C9E" points="755.2849,1476.5313,759.2849,1486.5313,763.2849,1476.5313,759.2849,1480.5313" style="stroke:#7C7C9E;stroke-width:1;"/><line style="stroke:#7C7C9E;stroke-width:1;" x1="857.9362" x2="759.2849" y1="1393.2344" y2="1393.2344"/><line style="stroke:#7C7C9E;stroke-width:1;" x1="759.2849" x2="759.2849" y1="1393.2344" y2="1415.2344"/><polygon fill="#7C7C9E" points="755.2849,1405.2344,759.2849,1415.2344,763.2849,1405.2344,759.2849,1409.2344" style="stroke:#7C7C9E;stroke-width:1;"/><line style="stroke:#7C7C9E;stroke-width:1;" x1="993.9498" x2="1092.6011" y1="1393.2344" y2="1393.2344"/><line style="stroke:#7C7C9E;stroke-width:1;" x1="1092.6011" x2="1092.6011" y1="1393.2344" y2="1415.2344"/><polygon fill="#7C7C9E" points="1088.6011,1405.2344,1092.6011,1415.2344,1096.6011,1405.2344,1092.6011,1409.2344" style="stroke:#7C7C9E;stroke-width:1;"/><line style="stroke:#7C7C9E;stroke-width:1;" x1="759.2849" x2="759.2849" y1="1753.5703" y2="1771.5703"/><line style="stroke:#7C7C9E;stroke-width:1;" x1="759.2849" x2="913.943" y1="1771.5703" y2="1771.5703"/><polygon fill="#7C7C9E" points="903.943,1767.5703,913.943,1771.5703,903.943,1775.5703,907.943,1771.5703" style="stroke:#7C7C9E;stroke-width:1;"/><line style="stroke:#7C7C9E;stroke-width:1;" x1="1092.6011" x2="1092.6011" y1="1467.8281" y2="1771.5703"/><line style="stroke:#7C7C9E;stroke-width:1;" x1="1092.6011" x2="937.943" y1="1771.5703" y2="1771.5703"/><polygon fill="#7C7C9E" points="947.943,1767.5703,937.943,1771.5703,947.943,1775.5703,943.943,1771.5703" style="stroke:#7C7C9E;stroke-width:1;"/><line style="stroke:#7C7C9E;stroke-width:1;" x1="925.943" x2="925.943" y1="1361.2344" y2="1381.2344"/><polygon fill="#7C7C9E" points="921.943,1371.2344,925.943,1381.2344,929.943,1371.2344,925.943,1375.2344" style="stroke:#7C7C9E;stroke-width:1;"/><line style="stroke:#7C7C9E;stroke-width:1;" x1="1030.7247" x2="925.943" y1="1286.6406" y2="1286.6406"/><line style="stroke:#7C7C9E;stroke-width:1;" x1="925.943" x2="925.943" y1="1286.6406" y2="1308.6406"/><polygon fill="#7C7C9E" points="921.943,1298.6406,925.943,1308.6406,929.943,1298.6406,925.943,1302.6406" style="stroke:#7C7C9E;stroke-width:1;"/><line style="stroke:#7C7C9E;stroke-width:1;" x1="1180.0753" x2="1284.8569" y1="1286.6406" y2="1286.6406"/><line style="stroke:#7C7C9E;stroke-width:1;" x1="1284.8569" x2="1284.8569" y1="1286.6406" y2="1308.6406"/><polygon fill="#7C7C9E" points="1280.8569,1298.6406,1284.8569,1308.6406,1288.8569,1298.6406,1284.8569,1302.6406" style="stroke:#7C7C9E;stroke-width:1;"/><line style="stroke:#7C7C9E;stroke-width:1;" x1="925.943" x2="925.943" y1="1783.5703" y2="1801.5703"/><line style="stroke:#7C7C9E;stroke-width:1;" x1="925.943" x2="1093.4" y1="1801.5703" y2="1801.5703"/><polygon fill="#7C7C9E" points="1083.4,1797.5703,1093.4,1801.5703,1083.4,1805.5703,1087.4,1801.5703" style="stroke:#7C7C9E;stroke-width:1;"/><line style="stroke:#7C7C9E;stroke-width:1;" x1="1284.8569" x2="1284.8569" y1="1344.9375" y2="1801.5703"/><line style="stroke:#7C7C9E;stroke-width:1;" x1="1284.8569" x2="1117.4" y1="1801.5703" y2="1801.5703"/><polygon fill="#7C7C9E" points="1127.4,1797.5703,1117.4,1801.5703,1127.4,1805.5703,1123.4,1801.5703" style="stroke:#7C7C9E;stroke-width:1;"/><line style="stroke:#7C7C9E;stroke-width:1;" x1="1105.4" x2="1105.4" y1="1254.6406" y2="1274.6406"/><polygon fill="#7C7C9E" points="1101.4,1264.6406,1105.4,1274.6406,1109.4,1264.6406,1105.4,1268.6406" style="stroke:#7C7C9E;stroke-width:1;"/><line style="stroke:#7C7C9E;stroke-width:1;" x1="1105.4" x2="1105.4" y1="365.6914" y2="385.6914"/><polygon fill="#7C7C9E" points="1101.4,375.6914,1105.4,385.6914,1109.4,375.6914,1105.4,379.6914" style="stroke:#7C7C9E;stroke-width:1;"/><line style="stroke:#7C7C9E;stroke-width:1;" x1="1196.9532" x2="1462.1114" y1="1845.5703" y2="1845.5703"/><polygon fill="#7C7C9E" points="1458.1114,1039.9375,1462.1114,1029.9375,1466.1114,1039.9375,1462.1114,1035.9375" style="stroke:#7C7C9E;stroke-width:1;"/><line style="stroke:#7C7C9E;stroke-width:1;" x1="1462.1114" x2="1462.1114" y1="353.6914" y2="1845.5703"/><line style="stroke:#7C7C9E;stroke-width:1;" x1="1462.1114" x2="1117.4" y1="353.6914" y2="353.6914"/><polygon fill="#7C7C9E" points="1127.4,349.6914,1117.4,353.6914,1127.4,357.6914,1123.4,353.6914" style="stroke:#7C7C9E;stroke-width:1;"/><line style="stroke:#7C7C9E;stroke-width:1;" x1="1105.4" x2="1105.4" y1="1813.5703" y2="1833.5703"/><polygon fill="#7C7C9E" points="1101.4,1823.5703,1105.4,1833.5703,1109.4,1823.5703,1105.4,1827.5703" style="stroke:#7C7C9E;stroke-width:1;"/><line style="stroke:#7C7C9E;stroke-width:1;" x1="1105.4" x2="1105.4" y1="1857.5703" y2="1877.5703"/><polygon fill="#7C7C9E" points="1101.4,1867.5703,1105.4,1877.5703,1109.4,1867.5703,1105.4,1871.5703" style="stroke:#7C7C9E;stroke-width:1;"/><line style="stroke:#7C7C9E;stroke-width:1;" x1="1609.067" x2="1609.067" y1="1974.1641" y2="1994.1641"/><polygon fill="#7C7C9E" points="1605.067,1984.1641,1609.067,1994.1641,1613.067,1984.1641,1609.067,1988.1641" style="stroke:#7C7C9E;stroke-width:1;"/><line style="stroke:#7C7C9E;stroke-width:1;" x1="1609.067" x2="1609.067" y1="2046.7578" y2="2066.7578"/><polygon fill="#7C7C9E" points="1605.067,2056.7578,1609.067,2066.7578,1613.067,2056.7578,1609.067,2060.7578" style="stroke:#7C7C9E;stroke-width:1;"/><line style="stroke:#7C7C9E;stroke-width:1;" x1="166.1396" x2="166.1396" y1="320.2891" y2="326.6914"/><line style="stroke:#7C7C9E;stroke-width:1;" x1="166.1396" x2="1105.4" y1="326.6914" y2="326.6914"/><line style="stroke:#7C7C9E;stroke-width:1;" x1="1105.4" x2="1105.4" y1="326.6914" y2="341.6914"/><polygon fill="#7C7C9E" points="1101.4,331.6914,1105.4,341.6914,1109.4,331.6914,1105.4,335.6914" style="stroke:#7C7C9E;stroke-width:1;"/><line style="stroke:#7C7C9E;stroke-width:1;" x1="1105.4" x2="1105.4" y1="1901.5703" y2="1906.5703"/><line style="stroke:#7C7C9E;stroke-width:1;" x1="1105.4" x2="1609.067" y1="1906.5703" y2="1906.5703"/><line style="stroke:#7C7C9E;stroke-width:1;" x1="1609.067" x2="1609.067" y1="1906.5703" y2="1921.5703"/><polygon fill="#7C7C9E" points="1605.067,1911.5703,1609.067,1921.5703,1613.067,1911.5703,1609.067,1915.5703" style="stroke:#7C7C9E;stroke-width:1;"/><text fill="#D97757" font-family="'Inter, Helvetica, Arial, sans-serif'" font-size="16" lengthAdjust="spacing" textLength="107.0313" x="207.4192" y="73.7344">Project Setup</text><text fill="#D97757" font-family="'Inter, Helvetica, Arial, sans-serif'" font-size="16" lengthAdjust="spacing" textLength="108.2109" x="939.885" y="73.7344">Execute Loop</text><text fill="#D97757" font-family="'Inter, Helvetica, Arial, sans-serif'" font-size="16" lengthAdjust="spacing" textLength="91.6406" x="1562.2466" y="73.7344">Completion</text><?plantuml-src fLRRRXit47tNLqnJeB2tCXJRJPt8IGf7TYv0ahgsWxu82EZTsHNhNNB3YsMrAT2dVa0_eP-MB-aCkQlLpQc3G80WaPmpCsVc3FcDcs25K9T2gfwzageMHbHmATAhmcYlif4kjO5lTt_WpyA937FXI_TSAzSSoUzZZWyt7tahoCczLygXwSDBBA_HoLJquSX8KVR12cLtB1gPtzjiVov_Ho3_2xiYTV9QkXdyqGDujXQls1Lxo3lQP6YQrVriFtkGqkfws76jzGDmB4MbLNOxS7jW4JzxT73muA3RtEHcOQlpzaoiGHmPewVDua5wa3x2Td7PzDm9urQDJ-RnDaj_BbAdjCElfMqUKXVD_h8N-dRIIQs-rjKygyN4brpPgQnAeM9I5zALs1tzaOywNeF7AGCE6y2dIV9I68NMmckjQ_WUHgYSDnpnaNTwvpoTOEPBgGfuNkffaZmU182dlTx75QXJet_3rC4vEb-tnpxsBDUcDtn7hGtXjuKwdXohgNGJCFZ1IqCALCuUzdh35wZG2AfEaXoZbOM2OvrwtawIiTeI9fr8H-RUO1zINTLQiMaV94ih5odQRSOP6Ome5y9UmV7HYs3kw8-5u3Z36bM6AfLeuJkAIcf3nGhceJsCB2QEsGms4t6Du6OrsY6jeIgaGfAhAlg4n77sQJbhGXLSz3uuj8vEzCXFwBXrravkCFNaY-dlIEiPYasmx-4l7isCifWNXjCeTIhAYRPk-73t_ls1gEKWRVS74s6ogJ0uLf_-_WSAT6Hja9YgEDtiVILktek2EKkIGtAnb6jNVxmMfIS6GxgV_leNHgVleDGY8wvIRP2-l7BDtXkiD8LP6sebAaopUiJp2RdUL1IBjbc-cA2fHCdjG9Hqt0387BPMe7xQ1fhF2hPMY4kvLiH2IzescHDTIN8glCKa0L6Ma4bR2qSDeugn-bL81pcfYP2rDnGIPu-bHNPBZAdegWKweyvF6UcI8S2IbAY19e8cDwJU668AgA69uEqMQ2rAfJdJbHXFcG_CG50udg9CHIrI6kC1HMKoPog6poKHmvKJsGn2suO6PjAyVSAj6telf8cr3L8eqM76tH-fFEjiRwDHaNgMmmk6NYdM_6TDPsYNBIdeZkE8C5PHS4v3BfMqayDmyXQkrk2EABa8q6Ot9aOfNv6H1AumEsnENX9DLn4w47YBYvo7xwANZkwHA5DVnedH5PmflvQ2MxZWXkHsfcbRx_XwJJgdwsTQwOGBQaZ8kn2KboJDniyAh4zP7RoRQNzPuk9cBcH98k3Dq7ZplP6ekNzMTBqa9Yf3f6HutCY0KAo_3170RkYcj1G-GzYfuqXahaCpios5oY-YMn7sulYuoz6tmPclkGywShURXe-HXYBeikGxX6YaLu-5tEXgh1QLJB9fKMtey-6xEjimvoj1KSqb0OF0vA8sJhe17jA-SvVJP1XfukmChoLEuGKvPu_dRQuch5F7JeGguenfrHWCQa6ZCBjTZsiYUANIU3qIjAF96EPks_WHs1c-mnx3_XTejRETmTCdiFT5fXJMYHBKhDorUEcBWdaabJXDHqC5yCOPGS7IhNpZ-e3qR3CWg9WpA-tsuHpgZhEWKtRZ_mntFdZq6AhNmjqPRFY66uHDAOFO6nprQrs4yLK9vUc6YhMSWyy3sEXcqpoyY0xcZSW-pfhP057kKH27_p-yLjFO0BvmWyGN14mdb1fTgdnXnqbAlKHQfN9HmQNzV1PhpvLHz4NlWuN7okAJZMujukqCQstYUytwYhGu0vs7goh4q0yY633juQbsZk6gey4bSxhJNVFAsRh04Wj-t0xe9MMg0AszgptVkFIorFL_?></g></svg>