<svg xmlns="http://www.w3.org/2000/svg" xmlns:xlink="http://www.w3.org/1999/xlink" contentStyleType="text/css" data-diagram-type="ACTIVITY" height="2065px" preserveAspectRatio="none" style="width:1684px;height:2065px;background:#141414;" version="1.1" viewBox="0 0 1684 2065" width="1684px" zoomAndPan="magnify"><?plantuml 1.2026.3beta4?><defs/><g><rect fill="#141414" height="2065" style="stroke:none;stroke-width:1;" width="1684" x="0" y="0"/><g class="title" data-source-line="32"><text fill="#D97757" font-family="'Inter, Helvetica, Arial, sans-serif'" font-size="22" font-weight="700" lengthAdjust="spacing" textLength="602.5078" x="539.93" y="35.4209">Harness Loop + Centurion Auto-Scheduling Flow</text></g><rect fill="#FFFFFF" height="15.1328" style="stroke:#FFFFFF;stroke-width:1;" width="1647.3679" x="15" y="58.1753"/><ellipse cx="156.4868" cy="88.3081" fill="#D97757" rx="10" ry="10" style="stroke:#000000;stroke-width:1;"/><rect fill="#1A1A2E" height="50.2656" rx="12.5" ry="12.5" style="stroke:#3D3D5C;stroke-width:1;" width="140.3516" x="86.311" y="118.3081"/><text fill="#F0EFE8" font-family="'Inter, Helvetica, Arial, sans-serif'" font-size="13" lengthAdjust="spacing" textLength="120.3516" x="96.311" y="140.375">User starts project</text><text fill="#F0EFE8" font-family="'Inter, Helvetica, Arial, sans-serif'" font-size="13" lengthAdjust="spacing" textLength="119.2725" x="96.311" y="155.5078">with requirements</text><rect fill="#1A1A2E" height="50.2656" rx="12.5" ry="12.5" style="stroke:#3D3D5C;stroke-width:1;" width="270.9736" x="21" y="188.5737"/><text fill="#F0EFE8" font-family="'Inter, Helvetica, Arial, sans-serif'" font-size="13" lengthAdjust="spacing" textLength="60.7153" x="31" y="210.6406">Generate</text><text fill="#F0EFE8" font-family="'Inter, Helvetica, Arial, sans-serif'" font-size="13" font-weight="700" lengthAdjust="spacing" textLength="129.4033" x="95.8477" y="210.6406">Design Document</text><text fill="#F0EFE8" font-family="'Inter, Helvetica, Arial, sans-serif'" font-size="13" lengthAdjust="spacing" textLength="250.9736" x="31" y="225.7734">(architecture, components, interfaces)</text><path d="M309.9297,256.2729 L309.9297,279.9722 L289.9297,283.9722 L309.9297,287.9722 L309.9297,311.6714 A0,0 0 0 0 309.9297,311.6714 L482.7212,311.6714 A0,0 0 0 0 482.7212,311.6714 L482.7212,266.2729 L472.7212,256.2729 L309.9297,256.2729 A0,0 0 0 0 309.9297,256.2729" fill="#1A1A2E" style="stroke:#3D3D5C;stroke-width:1;"/><path d="M472.7212,256.2729 L472.7212,266.2729 L482.7212,266.2729 L472.7212,256.2729" fill="#1A1A2E" style="stroke:#3D3D5C;stroke-width:1;"/><text fill="#7C7C9E" font-family="'Inter, Helvetica, Arial, sans-serif'" font-size="13" lengthAdjust="spacing" textLength="117.3364" x="315.9297" y="273.3398">Tasks have types:</text><text fill="#7C7C9E" font-family="'Inter, Helvetica, Arial, sans-serif'" font-size="13" lengthAdjust="spacing" textLength="133.3071" x="315.9297" y="288.4727">engineering, design,</text><text fill="#7C7C9E" font-family="'Inter, Helvetica, Arial, sans-serif'" font-size="13" lengthAdjust="spacing" textLength="151.7915" x="315.9297" y="303.6055">documentation, testing</text><rect fill="#1A1A2E" height="50.2656" rx="12.5" ry="12.5" style="stroke:#3D3D5C;stroke-width:1;" width="266.8857" x="23.0439" y="258.8394"/><text fill="#F0EFE8" font-family="'Inter, Helvetica, Arial, sans-serif'" font-size="13" lengthAdjust="spacing" textLength="43.4814" x="33.0439" y="280.9063">Create</text><text fill="#F0EFE8" font-family="'Inter, Helvetica, Arial, sans-serif'" font-size="13" font-weight="700" lengthAdjust="spacing" textLength="70.0718" x="80.6577" y="280.9063">Task DAG</text><text fill="#F0EFE8" font-family="'Inter, Helvetica, Arial, sans-serif'" font-size="13" lengthAdjust="spacing" textLength="246.8857" x="33.0439" y="296.0391">(tasks with dependencies &amp; priorities)</text><line style="stroke:#000000;stroke-width:1;" x1="15" x2="15" y1="58.1753" y2="2049.187"/><path d="M1213.5815,365.6714 L1213.5815,404.5034 L1193.5815,408.5034 L1213.5815,412.5034 L1213.5815,451.3354 A0,0 0 0 0 1213.5815,451.3354 L1392.3842,451.3354 A0,0 0 0 0 1392.3842,451.3354 L1392.3842,375.6714 L1382.3842,365.6714 L1213.5815,365.6714 A0,0 0 0 0 1213.5815,365.6714" fill="#1A1A2E" style="stroke:#3D3D5C;stroke-width:1;"/><path d="M1382.3842,365.6714 L1382.3842,375.6714 L1392.3842,375.6714 L1382.3842,365.6714" fill="#1A1A2E" style="stroke:#3D3D5C;stroke-width:1;"/><text fill="#7C7C9E" font-family="'Inter, Helvetica, Arial, sans-serif'" font-size="13" lengthAdjust="spacing" textLength="135.6558" x="1219.5815" y="382.7383">Centurion evaluates:</text><text fill="#7C7C9E" font-family="'Inter, Helvetica, Arial, sans-serif'" font-size="13" lengthAdjust="spacing" textLength="157.8027" x="1219.5815" y="397.8711">&#8226; CPU load &amp; core count</text><text fill="#7C7C9E" font-family="'Inter, Helvetica, Arial, sans-serif'" font-size="13" lengthAdjust="spacing" textLength="125.5249" x="1219.5815" y="413.0039">&#8226; Memory pressure</text><text fill="#7C7C9E" font-family="'Inter, Helvetica, Arial, sans-serif'" font-size="13" lengthAdjust="spacing" textLength="121.3862" x="1219.5815" y="428.1367">&#8226; Active processes</text><text fill="#7C7C9E" font-family="'Inter, Helvetica, Arial, sans-serif'" font-size="13" lengthAdjust="spacing" textLength="102.6289" x="1219.5815" y="443.2695">&#8226; Thermal state</text><rect fill="#1A1A2E" height="65.3984" rx="12.5" ry="12.5" style="stroke:#3D3D5C;stroke-width:1;" width="272.4019" x="921.1797" y="375.8042"/><text fill="#F0EFE8" font-family="'Inter, Helvetica, Arial, sans-serif'" font-size="13" lengthAdjust="spacing" textLength="39.5078" x="931.1797" y="397.8711">Query</text><text fill="#F0EFE8" font-family="'Inter, Helvetica, Arial, sans-serif'" font-size="13" font-weight="700" lengthAdjust="spacing" textLength="72.1348" x="974.8198" y="397.8711">Centurion</text><text fill="#D97757" font-family="'Inter, Helvetica, Arial, sans-serif'" font-size="13" lengthAdjust="spacing" textLength="252.4019" x="931.1797" y="413.0039">localhost:8100/api/centurion/hardware</text><text fill="#F0EFE8" font-family="'Inter, Helvetica, Arial, sans-serif'" font-size="13" lengthAdjust="spacing" textLength="36.3721" x="931.1797" y="428.1367">&#8594; get</text><text fill="#F0EFE8" font-family="'Inter, Helvetica, Arial, sans-serif'" font-size="13" font-weight="700" lengthAdjust="spacing" textLength="198.2627" x="971.6841" y="428.1367">recommended_max_agents</text><polygon fill="#1A1A2E" points="810.0693,471.3354,930.6938,471.3354,942.6938,483.3354,930.6938,495.3354,810.0693,495.3354,798.0693,483.3354,810.0693,471.3354" style="stroke:#D97757;stroke-width:1;"/><text fill="#D97757" font-family="'Inter, Helvetica, Arial, sans-serif'" font-size="13" lengthAdjust="spacing" textLength="43.5386" x="874.3816" y="507.4023">critical</text><text fill="#F0EFE8" font-family="'Inter, Helvetica, Arial, sans-serif'" font-size="13" lengthAdjust="spacing" textLength="120.6245" x="810.0693" y="487.8359">Memory pressure?</text><rect fill="#1A1A2E" height="50.2656" rx="12.5" ry="12.5" style="stroke:#3D3D5C;stroke-width:1;" width="163.0063" x="788.8784" y="530.4683"/><text fill="#F0EFE8" font-family="'Inter, Helvetica, Arial, sans-serif'" font-size="13" font-weight="700" lengthAdjust="spacing" textLength="44.1099" x="798.8784" y="552.5352">Pause</text><text fill="#F0EFE8" font-family="'Inter, Helvetica, Arial, sans-serif'" font-size="13" lengthAdjust="spacing" textLength="94.7642" x="847.1206" y="552.5352">all dispatching</text><text fill="#F0EFE8" font-family="'Inter, Helvetica, Arial, sans-serif'" font-size="13" lengthAdjust="spacing" textLength="119.2407" x="798.8784" y="567.668">Wait for resources</text><polygon fill="#1A1A2E" points="1036.3349,471.3354,1068.5175,471.3354,1080.5175,483.3354,1068.5175,495.3354,1036.3349,495.3354,1024.3349,483.3354,1036.3349,471.3354" style="stroke:#D97757;stroke-width:1;"/><text fill="#F0EFE8" font-family="'Inter, Helvetica, Arial, sans-serif'" font-size="13" lengthAdjust="spacing" textLength="32.1826" x="1036.3349" y="487.8359">warn</text><text fill="#D97757" font-family="'Inter, Helvetica, Arial, sans-serif'" font-size="13" lengthAdjust="spacing" textLength="45.7793" x="1080.5175" y="480.2695">normal</text><rect fill="#1A1A2E" height="50.2656" rx="12.5" ry="12.5" style="stroke:#3D3D5C;stroke-width:1;" width="161.083" x="971.8847" y="515.3354"/><text fill="#F0EFE8" font-family="'Inter, Helvetica, Arial, sans-serif'" font-size="13" font-weight="700" lengthAdjust="spacing" textLength="53.9106" x="981.8847" y="537.4023">Reduce</text><text fill="#F0EFE8" font-family="'Inter, Helvetica, Arial, sans-serif'" font-size="13" lengthAdjust="spacing" textLength="66.041" x="1039.9277" y="537.4023">batch size</text><text fill="#F0EFE8" font-family="'Inter, Helvetica, Arial, sans-serif'" font-size="13" lengthAdjust="spacing" textLength="141.083" x="981.8847" y="552.5352">(halve current target)</text><rect fill="#1A1A2E" height="35.1328" rx="12.5" ry="12.5" style="stroke:#3D3D5C;stroke-width:1;" width="172.915" x="1152.9677" y="533.4683"/><text fill="#F0EFE8" font-family="'Inter, Helvetica, Arial, sans-serif'" font-size="13" lengthAdjust="spacing" textLength="152.915" x="1162.9677" y="555.5352">Proceed at full capacity</text><rect fill="#1A1A2E" height="50.2656" rx="12.5" ry="12.5" style="stroke:#3D3D5C;stroke-width:1;" width="265.7939" x="924.4836" y="620.7339"/><text fill="#F0EFE8" font-family="'Inter, Helvetica, Arial, sans-serif'" font-size="13" lengthAdjust="spacing" textLength="27.5806" x="934.4836" y="642.8008">Find</text><text fill="#F0EFE8" font-family="'Inter, Helvetica, Arial, sans-serif'" font-size="13" font-weight="700" lengthAdjust="spacing" textLength="85.4141" x="966.1965" y="642.8008">ready tasks</text><text fill="#F0EFE8" font-family="'Inter, Helvetica, Arial, sans-serif'" font-size="13" lengthAdjust="spacing" textLength="245.7939" x="934.4836" y="657.9336">(status=pending, all deps completed)</text><polygon fill="#1A1A2E" points="1007.8689,740.5659,1106.8923,740.5659,1118.8923,752.5659,1106.8923,764.5659,1007.8689,764.5659,995.8689,752.5659,1007.8689,740.5659" style="stroke:#D97757;stroke-width:1;"/><text fill="#F0EFE8" font-family="'Inter, Helvetica, Arial, sans-serif'" font-size="13" lengthAdjust="spacing" textLength="99.0234" x="1007.8689" y="757.0664">Running tasks?</text><text fill="#D97757" font-family="'Inter, Helvetica, Arial, sans-serif'" font-size="13" lengthAdjust="spacing" textLength="22.4644" x="973.4045" y="749.5">yes</text><text fill="#D97757" font-family="'Inter, Helvetica, Arial, sans-serif'" font-size="13" lengthAdjust="spacing" textLength="16.1929" x="1118.8923" y="749.5">no</text><rect fill="#1A1A2E" height="50.2656" rx="12.5" ry="12.5" style="stroke:#3D3D5C;stroke-width:1;" width="125.8345" x="918.1945" y="774.5659"/><text fill="#F0EFE8" font-family="'Inter, Helvetica, Arial, sans-serif'" font-size="13" lengthAdjust="spacing" textLength="105.8345" x="928.1945" y="796.6328">Wait for running</text><text fill="#F0EFE8" font-family="'Inter, Helvetica, Arial, sans-serif'" font-size="13" lengthAdjust="spacing" textLength="90.5049" x="928.1945" y="811.7656">tasks to finish</text><rect fill="#1A1A2E" height="50.2656" rx="12.5" ry="12.5" style="stroke:#3D3D5C;stroke-width:1;" width="139.2407" x="1064.029" y="774.5659"/><text fill="#F0EFE8" font-family="'Inter, Helvetica, Arial, sans-serif'" font-size="13" lengthAdjust="spacing" textLength="119.2407" x="1074.029" y="796.6328">All tasks complete</text><text fill="#F0EFE8" font-family="'Inter, Helvetica, Arial, sans-serif'" font-size="13" lengthAdjust="spacing" textLength="92.3901" x="1074.029" y="811.7656">or deadlocked</text><polygon fill="#1A1A2E" points="1014.3244,690.9995,1100.4367,690.9995,1112.4367,702.9995,1100.4367,714.9995,1014.3244,714.9995,1002.3244,702.9995,1014.3244,690.9995" style="stroke:#D97757;stroke-width:1;"/><text fill="#D97757" font-family="'Inter, Helvetica, Arial, sans-serif'" font-size="13" lengthAdjust="spacing" textLength="32.4302" x="1061.3806" y="727.0664">none</text><text fill="#F0EFE8" font-family="'Inter, Helvetica, Arial, sans-serif'" font-size="13" lengthAdjust="spacing" textLength="86.1123" x="1014.3244" y="707.5">Ready tasks?</text><text fill="#D97757" font-family="'Inter, Helvetica, Arial, sans-serif'" font-size="13" lengthAdjust="spacing" textLength="37.2607" x="1112.4367" y="699.9336">found</text><polygon fill="#1A1A2E" points="1057.3806,844.8315,1069.3806,856.8315,1057.3806,868.8315,1045.3806,856.8315,1057.3806,844.8315" style="stroke:#D97757;stroke-width:1;"/><path d="M1166.8501,878.8315 L1166.8501,917.6636 L1146.8501,921.6636 L1166.8501,925.6636 L1166.8501,964.4956 A0,0 0 0 0 1166.8501,964.4956 L1375.6074,964.4956 A0,0 0 0 0 1375.6074,964.4956 L1375.6074,888.8315 L1365.6074,878.8315 L1166.8501,878.8315 A0,0 0 0 0 1166.8501,878.8315" fill="#1A1A2E" style="stroke:#3D3D5C;stroke-width:1;"/><path d="M1365.6074,878.8315 L1365.6074,888.8315 L1375.6074,888.8315 L1365.6074,878.8315" fill="#1A1A2E" style="stroke:#3D3D5C;stroke-width:1;"/><text fill="#7C7C9E" font-family="'Inter, Helvetica, Arial, sans-serif'" font-size="13" lengthAdjust="spacing" textLength="139.5024" x="1172.8501" y="895.8984">Progressive ramp-up:</text><text fill="#7C7C9E" font-family="'Inter, Helvetica, Arial, sans-serif'" font-size="13" lengthAdjust="spacing" textLength="47.9375" x="1172.8501" y="911.0313">&#8226; Start:</text><text fill="#7C7C9E" font-family="'Inter, Helvetica, Arial, sans-serif'" font-size="13" font-weight="700" lengthAdjust="spacing" textLength="55.9355" x="1224.9199" y="911.0313">1 agent</text><text fill="#7C7C9E" font-family="'Inter, Helvetica, Arial, sans-serif'" font-size="13" lengthAdjust="spacing" textLength="89.6353" x="1172.8501" y="926.1641">&#8226; On success:</text><text fill="#7C7C9E" font-family="'Inter, Helvetica, Arial, sans-serif'" font-size="13" font-weight="700" lengthAdjust="spacing" textLength="50.0703" x="1266.6176" y="926.1641">double</text><text fill="#7C7C9E" font-family="'Inter, Helvetica, Arial, sans-serif'" font-size="13" lengthAdjust="spacing" textLength="80.1328" x="1172.8501" y="941.2969">&#8226; On failure:</text><text fill="#7C7C9E" font-family="'Inter, Helvetica, Arial, sans-serif'" font-size="13" font-weight="700" lengthAdjust="spacing" textLength="39.7744" x="1257.1152" y="941.2969">halve</text><text fill="#7C7C9E" font-family="'Inter, Helvetica, Arial, sans-serif'" font-size="13" lengthAdjust="spacing" textLength="187.7573" x="1172.8501" y="956.4297">&#8226; Cap at recommended_max</text><rect fill="#1A1A2E" height="50.2656" rx="12.5" ry="12.5" style="stroke:#3D3D5C;stroke-width:1;" width="178.939" x="967.9111" y="896.5308"/><text fill="#F0EFE8" font-family="'Inter, Helvetica, Arial, sans-serif'" font-size="13" lengthAdjust="spacing" textLength="60.7153" x="977.9111" y="918.5977">Calculate</text><text fill="#F0EFE8" font-family="'Inter, Helvetica, Arial, sans-serif'" font-size="13" font-weight="700" lengthAdjust="spacing" textLength="74.3564" x="1042.7588" y="918.5977">batch size</text><text fill="#F0EFE8" font-family="'Inter, Helvetica, Arial, sans-serif'" font-size="13" lengthAdjust="spacing" textLength="158.939" x="977.9111" y="933.7305">via progressive ramp-up</text><rect fill="#D97757" height="6" rx="2.5" ry="2.5" style="stroke:#D97757;stroke-width:1;" width="576.2246" x="769.2683" y="984.4956"/><rect fill="#1A1A2E" height="50.2656" rx="12.5" ry="12.5" style="stroke:#3D3D5C;stroke-width:1;" width="163.4634" x="783.2683" y="1010.4956"/><text fill="#F0EFE8" font-family="'Inter, Helvetica, Arial, sans-serif'" font-size="13" lengthAdjust="spacing" textLength="57.0972" x="793.2683" y="1032.5625">Dispatch</text><text fill="#F0EFE8" font-family="'Inter, Helvetica, Arial, sans-serif'" font-size="13" font-weight="700" lengthAdjust="spacing" textLength="82.2339" x="854.4978" y="1032.5625">subagent 1</text><text fill="#F0EFE8" font-family="'Inter, Helvetica, Arial, sans-serif'" font-size="13" lengthAdjust="spacing" textLength="133.6436" x="793.2683" y="1047.6953">(claude -p with task)</text><rect fill="#1A1A2E" height="35.1328" rx="12.5" ry="12.5" style="stroke:#3D3D5C;stroke-width:1;" width="163.4634" x="974.7317" y="1018.062"/><text fill="#F0EFE8" font-family="'Inter, Helvetica, Arial, sans-serif'" font-size="13" lengthAdjust="spacing" textLength="57.0972" x="984.7317" y="1040.1289">Dispatch</text><text fill="#F0EFE8" font-family="'Inter, Helvetica, Arial, sans-serif'" font-size="13" font-weight="700" lengthAdjust="spacing" textLength="82.2339" x="1045.9612" y="1040.1289">subagent 2</text><rect fill="#1A1A2E" height="50.2656" rx="12.5" ry="12.5" style="stroke:#3D3D5C;stroke-width:1;" width="165.2979" x="1166.195" y="1010.4956"/><text fill="#F0EFE8" font-family="'Inter, Helvetica, Arial, sans-serif'" font-size="13" lengthAdjust="spacing" textLength="57.0972" x="1176.195" y="1032.5625">Dispatch</text><text fill="#F0EFE8" font-family="'Inter, Helvetica, Arial, sans-serif'" font-size="13" font-weight="700" lengthAdjust="spacing" textLength="84.0684" x="1237.4245" y="1032.5625">subagent N</text><text fill="#7C7C9E" font-family="'Inter, Helvetica, Arial, sans-serif'" font-size="13" lengthAdjust="spacing" textLength="113.9912" x="1176.195" y="1047.6953">(up to batch size)</text><rect fill="#D97757" height="6" rx="2.5" ry="2.5" style="stroke:#D97757;stroke-width:1;" width="576.2246" x="769.2683" y="1080.7612"/><rect fill="#1A1A2E" height="50.2656" rx="12.5" ry="12.5" style="stroke:#3D3D5C;stroke-width:1;" width="182.6333" x="966.0639" y="1106.7612"/><text fill="#F0EFE8" font-family="'Inter, Helvetica, Arial, sans-serif'" font-size="13" lengthAdjust="spacing" textLength="127.1372" x="976.0639" y="1128.8281">Collect results from</text><text fill="#F0EFE8" font-family="'Inter, Helvetica, Arial, sans-serif'" font-size="13" lengthAdjust="spacing" textLength="162.6333" x="976.0639" y="1143.9609">all dispatched subagents</text><rect fill="#1A1A2E" height="50.2656" rx="12.5" ry="12.5" style="stroke:#3D3D5C;stroke-width:1;" width="185.4136" x="964.6738" y="1177.0269"/><text fill="#F0EFE8" font-family="'Inter, Helvetica, Arial, sans-serif'" font-size="13" lengthAdjust="spacing" textLength="47.0806" x="974.6738" y="1199.0938">Update</text><text fill="#F0EFE8" font-family="'Inter, Helvetica, Arial, sans-serif'" font-size="13" font-weight="700" lengthAdjust="spacing" textLength="70.0718" x="1025.8867" y="1199.0938">Task DAG</text><text fill="#F0EFE8" font-family="'Inter, Helvetica, Arial, sans-serif'" font-size="13" lengthAdjust="spacing" textLength="165.4136" x="974.6738" y="1214.2266">(mark completed / failed)</text><polygon fill="#1A1A2E" points="999.1821,1247.2925,1115.5791,1247.2925,1127.5791,1259.2925,1115.5791,1271.2925,999.1821,1271.2925,987.1821,1259.2925,999.1821,1247.2925" style="stroke:#D97757;stroke-width:1;"/><text fill="#F0EFE8" font-family="'Inter, Helvetica, Arial, sans-serif'" font-size="13" lengthAdjust="spacing" textLength="116.397" x="999.1821" y="1263.793">Engineering task?</text><text fill="#D97757" font-family="'Inter, Helvetica, Arial, sans-serif'" font-size="13" lengthAdjust="spacing" textLength="22.4644" x="964.7177" y="1256.2266">yes</text><text fill="#D97757" font-family="'Inter, Helvetica, Arial, sans-serif'" font-size="13" lengthAdjust="spacing" textLength="16.1929" x="1127.5791" y="1256.2266">no</text><rect fill="#1A1A2E" height="50.2656" rx="12.5" ry="12.5" style="stroke:#3D3D5C;stroke-width:1;" width="195.2271" x="786.1401" y="1281.2925"/><text fill="#F0EFE8" font-family="'Inter, Helvetica, Arial, sans-serif'" font-size="13" font-weight="700" lengthAdjust="spacing" textLength="132.7041" x="796.1401" y="1303.3594">Code Review Gate</text><text fill="#F0EFE8" font-family="'Inter, Helvetica, Arial, sans-serif'" font-size="13" lengthAdjust="spacing" textLength="175.2271" x="796.1401" y="1318.4922">Subagent reviews changes</text><polygon fill="#1A1A2E" points="831.7473,1351.5581,935.7599,1351.5581,947.7599,1363.5581,935.7599,1375.5581,831.7473,1375.5581,819.7473,1363.5581,831.7473,1351.5581" style="stroke:#D97757;stroke-width:1;"/><text fill="#F0EFE8" font-family="'Inter, Helvetica, Arial, sans-serif'" font-size="13" lengthAdjust="spacing" textLength="104.0127" x="831.7473" y="1368.0586">Review passed?</text><text fill="#D97757" font-family="'Inter, Helvetica, Arial, sans-serif'" font-size="13" lengthAdjust="spacing" textLength="16.1929" x="803.5544" y="1360.4922">no</text><text fill="#D97757" font-family="'Inter, Helvetica, Arial, sans-serif'" font-size="13" lengthAdjust="spacing" textLength="22.4644" x="947.7599" y="1360.4922">yes</text><rect fill="#1A1A2E" height="35.1328" rx="12.5" ry="12.5" style="stroke:#3D3D5C;stroke-width:1;" width="162.981" x="644.6163" y="1385.5581"/><text fill="#F0EFE8" font-family="'Inter, Helvetica, Arial, sans-serif'" font-size="13" lengthAdjust="spacing" textLength="142.981" x="654.6163" y="1407.625">Increment retry count</text><polygon fill="#1A1A2E" points="686.015,1455.6909,766.1986,1455.6909,778.1986,1467.6909,766.1986,1479.6909,686.015,1479.6909,674.015,1467.6909,686.015,1455.6909" style="stroke:#D97757;stroke-width:1;"/><text fill="#F0EFE8" font-family="'Inter, Helvetica, Arial, sans-serif'" font-size="13" lengthAdjust="spacing" textLength="80.1836" x="686.015" y="1472.1914">Retries &lt; 3?</text><text fill="#D97757" font-family="'Inter, Helvetica, Arial, sans-serif'" font-size="13" lengthAdjust="spacing" textLength="22.4644" x="651.5507" y="1464.625">yes</text><text fill="#D97757" font-family="'Inter, Helvetica, Arial, sans-serif'" font-size="13" lengthAdjust="spacing" textLength="16.1929" x="778.1986" y="1464.625">no</text><rect fill="#1A1A2E" height="50.2656" rx="12.5" ry="12.5" style="stroke:#3D3D5C;stroke-width:1;" width="214.6191" x="502.7212" y="1539.2573"/><text fill="#F0EFE8" font-family="'Inter, Helvetica, Arial, sans-serif'" font-size="13" lengthAdjust="spacing" textLength="44.2813" x="512.7212" y="1561.3242">Enable</text><text fill="#F0EFE8" font-family="'Inter, Helvetica, Arial, sans-serif'" font-size="13" font-weight="700" lengthAdjust="spacing" textLength="143.7236" x="561.1348" y="1561.3242">debugging protocol</text><text fill="#F0EFE8" font-family="'Inter, Helvetica, Arial, sans-serif'" font-size="13" lengthAdjust="spacing" textLength="194.6191" x="512.7212" y="1576.457">(extra context, error analysis)</text><polygon fill="#1A1A2E" points="569.8374,1489.6909,650.2241,1489.6909,662.2241,1501.6909,650.2241,1513.6909,569.8374,1513.6909,557.8374,1501.6909,569.8374,1489.6909" style="stroke:#D97757;stroke-width:1;"/><text fill="#D97757" font-family="'Inter, Helvetica, Arial, sans-serif'" font-size="13" lengthAdjust="spacing" textLength="22.4644" x="614.0308" y="1525.7578">yes</text><text fill="#F0EFE8" font-family="'Inter, Helvetica, Arial, sans-serif'" font-size="13" lengthAdjust="spacing" textLength="80.3867" x="569.8374" y="1506.1914">Retry &gt;= 2?</text><text fill="#D97757" font-family="'Inter, Helvetica, Arial, sans-serif'" font-size="13" lengthAdjust="spacing" textLength="16.1929" x="662.2241" y="1498.625">no</text><polygon fill="#1A1A2E" points="610.0308,1609.5229,622.0308,1621.5229,610.0308,1633.5229,598.0308,1621.5229,610.0308,1609.5229" style="stroke:#D97757;stroke-width:1;"/><rect fill="#1A1A2E" height="35.1328" rx="12.5" ry="12.5" style="stroke:#3D3D5C;stroke-width:1;" width="113.9453" x="553.0581" y="1653.5229"/><text fill="#F0EFE8" font-family="'Inter, Helvetica, Arial, sans-serif'" font-size="13" lengthAdjust="spacing" textLength="93.9453" x="563.0581" y="1675.5898">Re-queue task</text><rect fill="#1A1A2E" height="50.2656" rx="12.5" ry="12.5" style="stroke:#3D3D5C;stroke-width:1;" width="165.6851" x="759.3403" y="1489.6909"/><text fill="#F0EFE8" font-family="'Inter, Helvetica, Arial, sans-serif'" font-size="13" lengthAdjust="spacing" textLength="63.5527" x="769.3403" y="1511.7578">Mark task</text><text fill="#F0EFE8" font-family="'Inter, Helvetica, Arial, sans-serif'" font-size="13" font-weight="700" lengthAdjust="spacing" textLength="41.4629" x="837.0254" y="1511.7578">failed</text><text fill="#F0EFE8" font-family="'Inter, Helvetica, Arial, sans-serif'" font-size="13" lengthAdjust="spacing" textLength="145.6851" x="769.3403" y="1526.8906">Log for manual review</text><polygon fill="#1A1A2E" points="726.1068,1694.6558,738.1068,1706.6558,726.1068,1718.6558,714.1068,1706.6558,726.1068,1694.6558" style="stroke:#D97757;stroke-width:1;"/><rect fill="#1A1A2E" height="50.2656" rx="12.5" ry="12.5" style="stroke:#3D3D5C;stroke-width:1;" width="172.75" x="955.0254" y="1385.5581"/><text fill="#F0EFE8" font-family="'Inter, Helvetica, Arial, sans-serif'" font-size="13" lengthAdjust="spacing" textLength="45.2334" x="965.0254" y="1407.625">&#10003; Task</text><text fill="#F0EFE8" font-family="'Inter, Helvetica, Arial, sans-serif'" font-size="13" font-weight="700" lengthAdjust="spacing" textLength="77.0986" x="1014.3911" y="1407.625">completed</text><text fill="#F0EFE8" font-family="'Inter, Helvetica, Arial, sans-serif'" font-size="13" lengthAdjust="spacing" textLength="152.75" x="965.0254" y="1422.7578">Ramp-up: double batch</text><polygon fill="#1A1A2E" points="883.7536,1724.6558,895.7536,1736.6558,883.7536,1748.6558,871.7536,1736.6558,883.7536,1724.6558" style="stroke:#D97757;stroke-width:1;"/><rect fill="#1A1A2E" height="35.1328" rx="12.5" ry="12.5" style="stroke:#3D3D5C;stroke-width:1;" width="146.4644" x="1157.7754" y="1281.2925"/><text fill="#F0EFE8" font-family="'Inter, Helvetica, Arial, sans-serif'" font-size="13" lengthAdjust="spacing" textLength="45.2334" x="1167.7754" y="1303.3594">&#10003; Task</text><text fill="#F0EFE8" font-family="'Inter, Helvetica, Arial, sans-serif'" font-size="13" font-weight="700" lengthAdjust="spacing" textLength="77.0986" x="1217.1411" y="1303.3594">completed</text><polygon fill="#1A1A2E" points="1057.3806,1754.6558,1069.3806,1766.6558,1057.3806,1778.6558,1045.3806,1766.6558,1057.3806,1754.6558" style="stroke:#D97757;stroke-width:1;"/><polygon fill="#1A1A2E" points="1057.3806,331.6714,1069.3806,343.6714,1057.3806,355.6714,1045.3806,343.6714,1057.3806,331.6714" style="stroke:#D97757;stroke-width:1;"/><polygon fill="#1A1A2E" points="983.5097,1798.6558,1131.2514,1798.6558,1143.2514,1810.6558,1131.2514,1822.6558,983.5097,1822.6558,971.5097,1810.6558,983.5097,1798.6558" style="stroke:#D97757;stroke-width:1;"/><text fill="#F0EFE8" font-family="'Inter, Helvetica, Arial, sans-serif'" font-size="13" lengthAdjust="spacing" textLength="147.7417" x="983.5097" y="1815.1563">More tasks remaining?</text><text fill="#D97757" font-family="'Inter, Helvetica, Arial, sans-serif'" font-size="13" lengthAdjust="spacing" textLength="22.4644" x="1143.2514" y="1807.5898">yes</text><polygon fill="#1A1A2E" points="1057.3806,1842.6558,1069.3806,1854.6558,1057.3806,1866.6558,1045.3806,1854.6558,1057.3806,1842.6558" style="stroke:#D97757;stroke-width:1;"/><line style="stroke:#000000;stroke-width:1;" x1="487.7212" x2="487.7212" y1="58.1753" y2="2049.187"/><rect fill="#1A1A2E" height="50.2656" rx="12.5" ry="12.5" style="stroke:#3D3D5C;stroke-width:1;" width="227.9175" x="1429.3842" y="1886.6558"/><text fill="#F0EFE8" font-family="'Inter, Helvetica, Arial, sans-serif'" font-size="13" lengthAdjust="spacing" textLength="60.7153" x="1439.3842" y="1908.7227">Generate</text><text fill="#F0EFE8" font-family="'Inter, Helvetica, Arial, sans-serif'" font-size="13" font-weight="700" lengthAdjust="spacing" textLength="90.0352" x="1504.2319" y="1908.7227">Final Report</text><text fill="#F0EFE8" font-family="'Inter, Helvetica, Arial, sans-serif'" font-size="13" lengthAdjust="spacing" textLength="207.9175" x="1439.3842" y="1923.8555">(summary of all tasks, pass/fail)</text><rect fill="#1A1A2E" height="50.2656" rx="12.5" ry="12.5" style="stroke:#3D3D5C;stroke-width:1;" width="206.1069" x="1440.2895" y="1956.9214"/><text fill="#F0EFE8" font-family="'Inter, Helvetica, Arial, sans-serif'" font-size="13" lengthAdjust="spacing" textLength="32.7412" x="1450.2895" y="1978.9883">Send</text><text fill="#F0EFE8" font-family="'Inter, Helvetica, Arial, sans-serif'" font-size="13" font-weight="700" lengthAdjust="spacing" textLength="84.3032" x="1487.1631" y="1978.9883">notification</text><text fill="#F0EFE8" font-family="'Inter, Helvetica, Arial, sans-serif'" font-size="13" lengthAdjust="spacing" textLength="186.1069" x="1450.2895" y="1994.1211">(Telegram / terminal output)</text><ellipse cx="1543.343" cy="2038.187" fill="none" rx="11" ry="11" style="stroke:#000000;stroke-width:1;"/><ellipse cx="1543.343" cy="2038.187" fill="#FFFFFF" rx="6" ry="6" style="stroke:#000000;stroke-width:1;"/><line style="stroke:#000000;stroke-width:1;" x1="1423.3842" x2="1423.3842" y1="58.1753" y2="2049.187"/><line style="stroke:#000000;stroke-width:1;" x1="1661.3017" x2="1661.3017" y1="58.1753" y2="2049.187"/><line style="stroke:#7C7C9E;stroke-width:1;" x1="156.4868" x2="156.4868" y1="98.3081" y2="118.3081"/><polygon fill="#7C7C9E" points="152.4868,108.3081,156.4868,118.3081,160.4868,108.3081,156.4868,112.3081" style="stroke:#7C7C9E;stroke-width:1;"/><line style="stroke:#7C7C9E;stroke-width:1;" x1="156.4868" x2="156.4868" y1="168.5737" y2="188.5737"/><polygon fill="#7C7C9E" points="152.4868,178.5737,156.4868,188.5737,160.4868,178.5737,156.4868,182.5737" style="stroke:#7C7C9E;stroke-width:1;"/><line style="stroke:#7C7C9E;stroke-width:1;" x1="156.4868" x2="156.4868" y1="238.8394" y2="258.8394"/><polygon fill="#7C7C9E" points="152.4868,248.8394,156.4868,258.8394,160.4868,248.8394,156.4868,252.8394" style="stroke:#7C7C9E;stroke-width:1;"/><line style="stroke:#7C7C9E;stroke-width:1;" x1="870.3816" x2="870.3816" y1="495.3354" y2="530.4683"/><polygon fill="#7C7C9E" points="866.3816,520.4683,870.3816,530.4683,874.3816,520.4683,870.3816,524.4683" style="stroke:#7C7C9E;stroke-width:1;"/><line style="stroke:#7C7C9E;stroke-width:1;" x1="870.3816" x2="870.3816" y1="580.7339" y2="600.7339"/><polygon fill="#7C7C9E" points="866.3816,590.7339,870.3816,600.7339,874.3816,590.7339,870.3816,594.7339" style="stroke:#7C7C9E;stroke-width:1;"/><line style="stroke:#7C7C9E;stroke-width:1;" x1="1052.4262" x2="1052.4262" y1="495.3354" y2="515.3354"/><polygon fill="#7C7C9E" points="1048.4262,505.3354,1052.4262,515.3354,1056.4262,505.3354,1052.4262,509.3354" style="stroke:#7C7C9E;stroke-width:1;"/><line style="stroke:#7C7C9E;stroke-width:1;" x1="1052.4262" x2="1052.4262" y1="565.6011" y2="600.7339"/><polygon fill="#7C7C9E" points="1048.4262,590.7339,1052.4262,600.7339,1056.4262,590.7339,1052.4262,594.7339" style="stroke:#7C7C9E;stroke-width:1;"/><line style="stroke:#7C7C9E;stroke-width:1;" x1="942.6938" x2="1024.3349" y1="483.3354" y2="483.3354"/><polygon fill="#7C7C9E" points="1014.3349,479.3354,1024.3349,483.3354,1014.3349,487.3354,1018.3349,483.3354" style="stroke:#7C7C9E;stroke-width:1;"/><line style="stroke:#7C7C9E;stroke-width:1;" x1="1057.3806" x2="1057.3806" y1="441.2026" y2="456.3354"/><line style="stroke:#7C7C9E;stroke-width:1;" x1="1057.3806" x2="870.3816" y1="456.3354" y2="456.3354"/><line style="stroke:#7C7C9E;stroke-width:1;" x1="870.3816" x2="870.3816" y1="456.3354" y2="471.3354"/><polygon fill="#7C7C9E" points="866.3816,461.3354,870.3816,471.3354,874.3816,461.3354,870.3816,465.3354" style="stroke:#7C7C9E;stroke-width:1;"/><line style="stroke:#7C7C9E;stroke-width:1;" x1="1080.5175" x2="1239.4253" y1="483.3354" y2="483.3354"/><line style="stroke:#7C7C9E;stroke-width:1;" x1="1239.4253" x2="1239.4253" y1="483.3354" y2="533.4683"/><polygon fill="#7C7C9E" points="1235.4253,523.4683,1239.4253,533.4683,1243.4253,523.4683,1239.4253,527.4683" style="stroke:#7C7C9E;stroke-width:1;"/><line style="stroke:#7C7C9E;stroke-width:1;" x1="1239.4253" x2="1239.4253" y1="568.6011" y2="600.7339"/><polygon fill="#7C7C9E" points="1235.4253,590.7339,1239.4253,600.7339,1243.4253,590.7339,1239.4253,594.7339" style="stroke:#7C7C9E;stroke-width:1;"/><line style="stroke:#7C7C9E;stroke-width:1;" x1="870.3816" x2="1239.4253" y1="600.7339" y2="600.7339"/><line style="stroke:#7C7C9E;stroke-width:1;" x1="1057.3806" x2="1057.3806" y1="600.7339" y2="620.7339"/><polygon fill="#7C7C9E" points="1053.3806,610.7339,1057.3806,620.7339,1061.3806,610.7339,1057.3806,614.7339" style="stroke:#7C7C9E;stroke-width:1;"/><line style="stroke:#7C7C9E;stroke-width:1;" x1="1133.6494" x2="1133.6494" y1="824.8315" y2="829.8315"/><line style="stroke:#7C7C9E;stroke-width:1;" x1="1133.6494" x2="492.7212" y1="829.8315" y2="829.8315"/><line style="stroke:#7C7C9E;stroke-width:1;" x1="492.7212" x2="492.7212" y1="829.8315" y2="1854.6558"/><line style="stroke:#7C7C9E;stroke-width:1;" x1="492.7212" x2="1045.3806" y1="1854.6558" y2="1854.6558"/><polygon fill="#7C7C9E" points="1035.3806,1850.6558,1045.3806,1854.6558,1035.3806,1858.6558,1039.3806,1854.6558" style="stroke:#7C7C9E;stroke-width:1;"/><line style="stroke:#7C7C9E;stroke-width:1;" x1="995.8689" x2="981.1118" y1="752.5659" y2="752.5659"/><line style="stroke:#7C7C9E;stroke-width:1;" x1="981.1118" x2="981.1118" y1="752.5659" y2="774.5659"/><polygon fill="#7C7C9E" points="977.1118,764.5659,981.1118,774.5659,985.1118,764.5659,981.1118,768.5659" style="stroke:#7C7C9E;stroke-width:1;"/><line style="stroke:#7C7C9E;stroke-width:1;" x1="1118.8923" x2="1133.6494" y1="752.5659" y2="752.5659"/><line style="stroke:#7C7C9E;stroke-width:1;" x1="1133.6494" x2="1133.6494" y1="752.5659" y2="774.5659"/><polygon fill="#7C7C9E" points="1129.6494,764.5659,1133.6494,774.5659,1137.6494,764.5659,1133.6494,768.5659" style="stroke:#7C7C9E;stroke-width:1;"/><line style="stroke:#7C7C9E;stroke-width:1;" x1="981.1118" x2="981.1118" y1="824.8315" y2="829.8315"/><line style="stroke:#7C7C9E;stroke-width:1;" x1="981.1118" x2="1057.3806" y1="829.8315" y2="829.8315"/><line style="stroke:#7C7C9E;stroke-width:1;" x1="1057.3806" x2="1057.3806" y1="829.8315" y2="844.8315"/><polygon fill="#7C7C9E" points="1053.3806,834.8315,1057.3806,844.8315,1061.3806,834.8315,1057.3806,838.8315" style="stroke:#7C7C9E;stroke-width:1;"/><line style="stroke:#7C7C9E;stroke-width:1;" x1="1057.3806" x2="1057.3806" y1="714.9995" y2="740.5659"/><polygon fill="#7C7C9E" points="1053.3806,730.5659,1057.3806,740.5659,1061.3806,730.5659,1057.3806,734.5659" style="stroke:#7C7C9E;stroke-width:1;"/><line style="stroke:#7C7C9E;stroke-width:1;" x1="1112.4367" x2="1223.2697" y1="702.9995" y2="702.9995"/><polygon fill="#7C7C9E" points="1219.2697,793.1987,1223.2697,803.1987,1227.2697,793.1987,1223.2697,797.1987" style="stroke:#7C7C9E;stroke-width:1;"/><line style="stroke:#7C7C9E;stroke-width:1;" x1="1223.2697" x2="1223.2697" y1="702.9995" y2="856.8315"/><line style="stroke:#7C7C9E;stroke-width:1;" x1="1223.2697" x2="1069.3806" y1="856.8315" y2="856.8315"/><polygon fill="#7C7C9E" points="1079.3806,852.8315,1069.3806,856.8315,1079.3806,860.8315,1075.3806,856.8315" style="stroke:#7C7C9E;stroke-width:1;"/><line style="stroke:#7C7C9E;stroke-width:1;" x1="1057.3806" x2="1057.3806" y1="670.9995" y2="690.9995"/><polygon fill="#7C7C9E" points="1053.3806,680.9995,1057.3806,690.9995,1061.3806,680.9995,1057.3806,684.9995" style="stroke:#7C7C9E;stroke-width:1;"/><line style="stroke:#7C7C9E;stroke-width:1;" x1="1057.3806" x2="1057.3806" y1="868.8315" y2="896.5308"/><polygon fill="#7C7C9E" points="1053.3806,886.5308,1057.3806,896.5308,1061.3806,886.5308,1057.3806,890.5308" style="stroke:#7C7C9E;stroke-width:1;"/><line style="stroke:#7C7C9E;stroke-width:1;" x1="865" x2="865" y1="990.4956" y2="1010.4956"/><polygon fill="#7C7C9E" points="861,1000.4956,865,1010.4956,869,1000.4956,865,1004.4956" style="stroke:#7C7C9E;stroke-width:1;"/><line style="stroke:#7C7C9E;stroke-width:1;" x1="1056.4633" x2="1056.4633" y1="990.4956" y2="1018.062"/><polygon fill="#7C7C9E" points="1052.4633,1008.062,1056.4633,1018.062,1060.4633,1008.062,1056.4633,1012.062" style="stroke:#7C7C9E;stroke-width:1;"/><line style="stroke:#7C7C9E;stroke-width:1;" x1="1248.844" x2="1248.844" y1="990.4956" y2="1010.4956"/><polygon fill="#7C7C9E" points="1244.844,1000.4956,1248.844,1010.4956,1252.844,1000.4956,1248.844,1004.4956" style="stroke:#7C7C9E;stroke-width:1;"/><line style="stroke:#7C7C9E;stroke-width:1;" x1="865" x2="865" y1="1060.7612" y2="1080.7612"/><polygon fill="#7C7C9E" points="861,1070.7612,865,1080.7612,869,1070.7612,865,1074.7612" style="stroke:#7C7C9E;stroke-width:1;"/><line style="stroke:#7C7C9E;stroke-width:1;" x1="1056.4633" x2="1056.4633" y1="1053.1948" y2="1080.7612"/><polygon fill="#7C7C9E" points="1052.4633,1070.7612,1056.4633,1080.7612,1060.4633,1070.7612,1056.4633,1074.7612" style="stroke:#7C7C9E;stroke-width:1;"/><line style="stroke:#7C7C9E;stroke-width:1;" x1="1248.844" x2="1248.844" y1="1060.7612" y2="1080.7612"/><polygon fill="#7C7C9E" points="1244.844,1070.7612,1248.844,1080.7612,1252.844,1070.7612,1248.844,1074.7612" style="stroke:#7C7C9E;stroke-width:1;"/><line style="stroke:#7C7C9E;stroke-width:1;" x1="1057.3806" x2="1057.3806" y1="946.7964" y2="984.4956"/><polygon fill="#7C7C9E" points="1053.3806,974.4956,1057.3806,984.4956,1061.3806,974.4956,1057.3806,978.4956" style="stroke:#7C7C9E;stroke-width:1;"/><line style="stroke:#7C7C9E;stroke-width:1;" x1="1057.3806" x2="1057.3806" y1="1086.7612" y2="1106.7612"/><polygon fill="#7C7C9E" points="1053.3806,1096.7612,1057.3806,1106.7612,1061.3806,1096.7612,1057.3806,1100.7612" style="stroke:#7C7C9E;stroke-width:1;"/><line style="stroke:#7C7C9E;stroke-width:1;" x1="1057.3806" x2="1057.3806" y1="1157.0269" y2="1177.0269"/><polygon fill="#7C7C9E" points="1053.3806,1167.0269,1057.3806,1177.0269,1061.3806,1167.0269,1057.3806,1171.0269" style="stroke:#7C7C9E;stroke-width:1;"/><line style="stroke:#7C7C9E;stroke-width:1;" x1="610.0308" x2="610.0308" y1="1513.6909" y2="1539.2573"/><polygon fill="#7C7C9E" points="606.0308,1529.2573,610.0308,1539.2573,614.0308,1529.2573,610.0308,1533.2573" style="stroke:#7C7C9E;stroke-width:1;"/><line style="stroke:#7C7C9E;stroke-width:1;" x1="662.2241" x2="727.3403" y1="1501.6909" y2="1501.6909"/><polygon fill="#7C7C9E" points="723.3403,1554.3901,727.3403,1564.3901,731.3403,1554.3901,727.3403,1558.3901" style="stroke:#7C7C9E;stroke-width:1;"/><line style="stroke:#7C7C9E;stroke-width:1;" x1="727.3403" x2="727.3403" y1="1501.6909" y2="1621.5229"/><line style="stroke:#7C7C9E;stroke-width:1;" x1="727.3403" x2="622.0308" y1="1621.5229" y2="1621.5229"/><polygon fill="#7C7C9E" points="632.0308,1617.5229,622.0308,1621.5229,632.0308,1625.5229,628.0308,1621.5229" style="stroke:#7C7C9E;stroke-width:1;"/><line style="stroke:#7C7C9E;stroke-width:1;" x1="610.0308" x2="610.0308" y1="1589.5229" y2="1609.5229"/><polygon fill="#7C7C9E" points="606.0308,1599.5229,610.0308,1609.5229,614.0308,1599.5229,610.0308,1603.5229" style="stroke:#7C7C9E;stroke-width:1;"/><line style="stroke:#7C7C9E;stroke-width:1;" x1="610.0308" x2="610.0308" y1="1633.5229" y2="1653.5229"/><polygon fill="#7C7C9E" points="606.0308,1643.5229,610.0308,1653.5229,614.0308,1643.5229,610.0308,1647.5229" style="stroke:#7C7C9E;stroke-width:1;"/><line style="stroke:#7C7C9E;stroke-width:1;" x1="674.015" x2="610.0308" y1="1467.6909" y2="1467.6909"/><line style="stroke:#7C7C9E;stroke-width:1;" x1="610.0308" x2="610.0308" y1="1467.6909" y2="1489.6909"/><polygon fill="#7C7C9E" points="606.0308,1479.6909,610.0308,1489.6909,614.0308,1479.6909,610.0308,1483.6909" style="stroke:#7C7C9E;stroke-width:1;"/><line style="stroke:#7C7C9E;stroke-width:1;" x1="778.1986" x2="842.1829" y1="1467.6909" y2="1467.6909"/><line style="stroke:#7C7C9E;stroke-width:1;" x1="842.1829" x2="842.1829" y1="1467.6909" y2="1489.6909"/><polygon fill="#7C7C9E" points="838.1829,1479.6909,842.1829,1489.6909,846.1829,1479.6909,842.1829,1483.6909" style="stroke:#7C7C9E;stroke-width:1;"/><line style="stroke:#7C7C9E;stroke-width:1;" x1="610.0308" x2="610.0308" y1="1688.6558" y2="1706.6558"/><line style="stroke:#7C7C9E;stroke-width:1;" x1="610.0308" x2="714.1068" y1="1706.6558" y2="1706.6558"/><polygon fill="#7C7C9E" points="704.1068,1702.6558,714.1068,1706.6558,704.1068,1710.6558,708.1068,1706.6558" style="stroke:#7C7C9E;stroke-width:1;"/><line style="stroke:#7C7C9E;stroke-width:1;" x1="842.1829" x2="842.1829" y1="1539.9565" y2="1706.6558"/><line style="stroke:#7C7C9E;stroke-width:1;" x1="842.1829" x2="738.1068" y1="1706.6558" y2="1706.6558"/><polygon fill="#7C7C9E" points="748.1068,1702.6558,738.1068,1706.6558,748.1068,1710.6558,744.1068,1706.6558" style="stroke:#7C7C9E;stroke-width:1;"/><line style="stroke:#7C7C9E;stroke-width:1;" x1="726.1068" x2="726.1068" y1="1420.6909" y2="1455.6909"/><polygon fill="#7C7C9E" points="722.1068,1445.6909,726.1068,1455.6909,730.1068,1445.6909,726.1068,1449.6909" style="stroke:#7C7C9E;stroke-width:1;"/><line style="stroke:#7C7C9E;stroke-width:1;" x1="819.7473" x2="726.1068" y1="1363.5581" y2="1363.5581"/><line style="stroke:#7C7C9E;stroke-width:1;" x1="726.1068" x2="726.1068" y1="1363.5581" y2="1385.5581"/><polygon fill="#7C7C9E" points="722.1068,1375.5581,726.1068,1385.5581,730.1068,1375.5581,726.1068,1379.5581" style="stroke:#7C7C9E;stroke-width:1;"/><line style="stroke:#7C7C9E;stroke-width:1;" x1="947.7599" x2="1041.4004" y1="1363.5581" y2="1363.5581"/><line style="stroke:#7C7C9E;stroke-width:1;" x1="1041.4004" x2="1041.4004" y1="1363.5581" y2="1385.5581"/><polygon fill="#7C7C9E" points="1037.4004,1375.5581,1041.4004,1385.5581,1045.4004,1375.5581,1041.4004,1379.5581" style="stroke:#7C7C9E;stroke-width:1;"/><line style="stroke:#7C7C9E;stroke-width:1;" x1="726.1068" x2="726.1068" y1="1718.6558" y2="1736.6558"/><line style="stroke:#7C7C9E;stroke-width:1;" x1="726.1068" x2="871.7536" y1="1736.6558" y2="1736.6558"/><polygon fill="#7C7C9E" points="861.7536,1732.6558,871.7536,1736.6558,861.7536,1740.6558,865.7536,1736.6558" style="stroke:#7C7C9E;stroke-width:1;"/><line style="stroke:#7C7C9E;stroke-width:1;" x1="1041.4004" x2="1041.4004" y1="1435.8237" y2="1736.6558"/><line style="stroke:#7C7C9E;stroke-width:1;" x1="1041.4004" x2="895.7536" y1="1736.6558" y2="1736.6558"/><polygon fill="#7C7C9E" points="905.7536,1732.6558,895.7536,1736.6558,905.7536,1740.6558,901.7536,1736.6558" style="stroke:#7C7C9E;stroke-width:1;"/><line style="stroke:#7C7C9E;stroke-width:1;" x1="883.7536" x2="883.7536" y1="1331.5581" y2="1351.5581"/><polygon fill="#7C7C9E" points="879.7536,1341.5581,883.7536,1351.5581,887.7536,1341.5581,883.7536,1345.5581" style="stroke:#7C7C9E;stroke-width:1;"/><line style="stroke:#7C7C9E;stroke-width:1;" x1="987.1821" x2="883.7536" y1="1259.2925" y2="1259.2925"/><line style="stroke:#7C7C9E;stroke-width:1;" x1="883.7536" x2="883.7536" y1="1259.2925" y2="1281.2925"/><polygon fill="#7C7C9E" points="879.7536,1271.2925,883.7536,1281.2925,887.7536,1271.2925,883.7536,1275.2925" style="stroke:#7C7C9E;stroke-width:1;"/><line style="stroke:#7C7C9E;stroke-width:1;" x1="1127.5791" x2="1231.0076" y1="1259.2925" y2="1259.2925"/><line style="stroke:#7C7C9E;stroke-width:1;" x1="1231.0076" x2="1231.0076" y1="1259.2925" y2="1281.2925"/><polygon fill="#7C7C9E" points="1227.0076,1271.2925,1231.0076,1281.2925,1235.0076,1271.2925,1231.0076,1275.2925" style="stroke:#7C7C9E;stroke-width:1;"/><line style="stroke:#7C7C9E;stroke-width:1;" x1="883.7536" x2="883.7536" y1="1748.6558" y2="1766.6558"/><line style="stroke:#7C7C9E;stroke-width:1;" x1="883.7536" x2="1045.3806" y1="1766.6558" y2="1766.6558"/><polygon fill="#7C7C9E" points="1035.3806,1762.6558,1045.3806,1766.6558,1035.3806,1770.6558,1039.3806,1766.6558" style="stroke:#7C7C9E;stroke-width:1;"/><line style="stroke:#7C7C9E;stroke-width:1;" x1="1231.0076" x2="1231.0076" y1="1316.4253" y2="1766.6558"/><line style="stroke:#7C7C9E;stroke-width:1;" x1="1231.0076" x2="1069.3806" y1="1766.6558" y2="1766.6558"/><polygon fill="#7C7C9E" points="1079.3806,1762.6558,1069.3806,1766.6558,1079.3806,1770.6558,1075.3806,1766.6558" style="stroke:#7C7C9E;stroke-width:1;"/><line style="stroke:#7C7C9E;stroke-width:1;" x1="1057.3806" x2="1057.3806" y1="1227.2925" y2="1247.2925"/><polygon fill="#7C7C9E" points="1053.3806,1237.2925,1057.3806,1247.2925,1061.3806,1237.2925,1057.3806,1241.2925" style="stroke:#7C7C9E;stroke-width:1;"/><line style="stroke:#7C7C9E;stroke-width:1;" x1="1057.3806" x2="1057.3806" y1="355.6714" y2="375.8042"/><polygon fill="#7C7C9E" points="1053.3806,365.8042,1057.3806,375.8042,1061.3806,365.8042,1057.3806,369.8042" style="stroke:#7C7C9E;stroke-width:1;"/><line style="stroke:#7C7C9E;stroke-width:1;" x1="1143.2514" x2="1404.3842" y1="1810.6558" y2="1810.6558"/><polygon fill="#7C7C9E" points="1400.3842,1016.6636,1404.3842,1006.6636,1408.3842,1016.6636,1404.3842,1012.6636" style="stroke:#7C7C9E;stroke-width:1;"/><line style="stroke:#7C7C9E;stroke-width:1;" x1="1404.3842" x2="1404.3842" y1="343.6714" y2="1810.6558"/><line style="stroke:#7C7C9E;stroke-width:1;" x1="1404.3842" x2="1069.3806" y1="343.6714" y2="343.6714"/><polygon fill="#7C7C9E" points="1079.3806,339.6714,1069.3806,343.6714,1079.3806,347.6714,1075.3806,343.6714" style="stroke:#7C7C9E;stroke-width:1;"/><line style="stroke:#7C7C9E;stroke-width:1;" x1="1057.3806" x2="1057.3806" y1="1778.6558" y2="1798.6558"/><polygon fill="#7C7C9E" points="1053.3806,1788.6558,1057.3806,1798.6558,1061.3806,1788.6558,1057.3806,1792.6558" style="stroke:#7C7C9E;stroke-width:1;"/><line style="stroke:#7C7C9E;stroke-width:1;" x1="1057.3806" x2="1057.3806" y1="1822.6558" y2="1842.6558"/><polygon fill="#7C7C9E" points="1053.3806,1832.6558,1057.3806,1842.6558,1061.3806,1832.6558,1057.3806,1836.6558" style="stroke:#7C7C9E;stroke-width:1;"/><line style="stroke:#7C7C9E;stroke-width:1;" x1="1543.343" x2="1543.343" y1="1936.9214" y2="1956.9214"/><polygon fill="#7C7C9E" points="1539.343,1946.9214,1543.343,1956.9214,1547.343,1946.9214,1543.343,1950.9214" style="stroke:#7C7C9E;stroke-width:1;"/><line style="stroke:#7C7C9E;stroke-width:1;" x1="1543.343" x2="1543.343" y1="2007.187" y2="2027.187"/><polygon fill="#7C7C9E" points="1539.343,2017.187,1543.343,2027.187,1547.343,2017.187,1543.343,2021.187" style="stroke:#7C7C9E;stroke-width:1;"/><line style="stroke:#7C7C9E;stroke-width:1;" x1="156.4868" x2="156.4868" y1="309.105" y2="316.6714"/><line style="stroke:#7C7C9E;stroke-width:1;" x1="156.4868" x2="1057.3806" y1="316.6714" y2="316.6714"/><line style="stroke:#7C7C9E;stroke-width:1;" x1="1057.3806" x2="1057.3806" y1="316.6714" y2="331.6714"/><polygon fill="#7C7C9E" points="1053.3806,321.6714,1057.3806,331.6714,1061.3806,321.6714,1057.3806,325.6714" style="stroke:#7C7C9E;stroke-width:1;"/><line style="stroke:#7C7C9E;stroke-width:1;" x1="1057.3806" x2="1057.3806" y1="1866.6558" y2="1871.6558"/><line style="stroke:#7C7C9E;stroke-width:1;" x1="1057.3806" x2="1543.343" y1="1871.6558" y2="1871.6558"/><line style="stroke:#7C7C9E;stroke-width:1;" x1="1543.343" x2="1543.343" y1="1871.6558" y2="1886.6558"/><polygon fill="#7C7C9E" points="1539.343,1876.6558,1543.343,1886.6558,1547.343,1876.6558,1543.343,1880.6558" style="stroke:#7C7C9E;stroke-width:1;"/><text fill="#D97757" font-family="'Inter, Helvetica, Arial, sans-serif'" font-size="13" lengthAdjust="spacing" textLength="86.9629" x="207.8792" y="70.2422">Project Setup</text><text fill="#D97757" font-family="'Inter, Helvetica, Arial, sans-serif'" font-size="13" lengthAdjust="spacing" textLength="87.9214" x="911.592" y="70.2422">Execute Loop</text><text fill="#D97757" font-family="'Inter, Helvetica, Arial, sans-serif'" font-size="13" lengthAdjust="spacing" textLength="74.458" x="1505.114" y="70.2422">Completion</text><?plantuml-src fLRRRXj737tNLx0fKDYg3CLn0YUIuyAHdGkGfAxje2y20cgNkplrQcOp5zjgKw1F_O3sjK_zj7n9oLcj9EkIEWWC6FOiUSWvv27d6r_GcA0gKUcMkrIwGejZ665ocLiJT3emfR7mxUv3-LcmI2d3KFhdHlkfINQVCdgytkGjSf1xhxGdsu6NL5wHLmbsuCWgB3lWKBiTHrPbzzRxdwjV2NRtMWjVCV7gIla9_DO2UBQIB-xY0v8lngPafwTxwLxwAE7JrRG1ZXMEZKutGpK6YuZfa_tzH_lpZ-k0d-6AzP6rvdfwk9_i9qy4_zoZzSkM9xCyfaU_BvAWZQUl9M0Q_nOk__RAAwE_5doUDEEL10U9dFUcvuS7eyENQ3Kv1w-DgU1x693smKhae-3DpdbIK1fAfNDuNfhhW-xeyA0RCGvRhOzBQAVM_4A9XtFoeMhCFhQSyDhglUC6W_YtWwgs7EfhvGkmz24eophGtlLRhTuBqcIHcMstZycfNCEnIO9yRhU7UWjjKYZFxi5I1n8phemMrmueQV0C4tBRWZEmLADSeBk4uwCNqTtpFmvYu9GgqYdfH963xpWhPIpJ7jrZQQtA2y-CNaIV0gy8_AGYr-CpqhdInABHUOUH9CyE7wVJL57Arm5FphD5Y-F4RbbbxUI6ai2nf01pqbgMSqE9tVifa9q0bsfM6od3K2_Xb2R1iZ3Eznxlth_VnKfrayQXMw1Dhz5I4s2eF_tv5-JacHrBpE5OY4ZVZ_7cFUR2PhlTv-2tM825xg0hB0Ep6wa0-FJ7lp0uVGUbmPIPJ8mb_XMqdtrzGsF3rwWiDniNRdP-97E4f2EuR8xSxCD5GNQCfRICfyXtmo20oc1h2V27RU1Pgc5hYPP4AihCD3VVZW5wxVOf1aVjDc1PGgfSXPxRIkT3_JCg3nchXv5Di9oMC46b8mdBBEewL0DqnWf916aa4E1uLdAR5SXJ5f9WBNC6tFPCzdO3j9AbDdBNfHnFXHDA0JcTm5acM6728xTViw4oeQBtN34nKaLC9n2RExQvq1RSKsdmsA7ncbIvA9YIFAMYaPhAixdl9XerQ-nsUj4nQ2spuREk4tAtFJdfESSrmb3NilG6CgMLA_hHSWDNAt17VBaQeBdTa1db-sBAihYaj3-r735DbpLq9713Y4o6xMAKETq3B9DGrdDbNd2X_4gXj74k3IajpOEysWdL6XcThbhDPHJNK4_qlWjHYgBssTSVDRYGY5IYIMh2gAHbYmnLoPA85h4FRnaCi9AMMfBzaiAuDZLFlUEfDlY-BenYHh0RMomfCQG4ErKzJQK0iSF5brEN9yr6X0VrVBcBwLi9rXIetfQ7Mw6INfaNOBkfrbGSzGLYmKnPobPYmlaruo2pPZpKYwfdYJN1NDH4xrsLhjaSO-HaP_A1RkHvKKSdyvKGsRYp8dYA30nJUKPNYgxX1GUNYESD1JQUStSNgFDw7ZNAZGuLykXCDsjtHJ2lT58lN8RsF4NZh6v4KWDxArln0FQ-GDTptmaSFeK7N-JAQPrev7PctbCQXJmN7bbHth1fh03TU8kSBE_v6zy1ucUS1UHYJfnos_qPr1tdndmAJEEVqSw7G85YzHguEuFrtaY3Y2lVeEuDoVgroUEe6wCElC_gMix0Pmci3RDkTdxwv-_u8E4WisQKE6VJIGBrKAZ5qV__ORTybGq15hPE_JQ1wuAlo8jObdqzVRcdMCfSDYwySf-_pSf3Q537Yk-RsJDeyJ78cuxvEwFAsFebwCAODJa1ayNr5dFeH35qXVxu23odk1vvhgcCtm427tqlgAHStjfTVgFPSOGsmLT1jZI_MKtr7m00?></g></svg>