<svg xmlns="http://www.w3.org/2000/svg" xmlns:xlink="http://www.w3.org/1999/xlink" contentStyleType="text/css" data-diagram-type="DESCRIPTION" height="592px" preserveAspectRatio="none" style="width:2100px;height:592px;background:#141414;" version="1.1" viewBox="0 0 2100 592" width="2100px" zoomAndPan="magnify"><?plantuml 1.2026.3beta4?><defs/><g><rect fill="#141414" height="592" style="stroke:none;stroke-width:1;" width="2100" x="0" y="0"/><g class="title" data-source-line="63"><text fill="#D97757" font-family="'Inter, Helvetica, Arial, sans-serif'" font-size="22" font-weight="700" lengthAdjust="spacing" textLength="357.7256" x="870.4655" y="35.4209">Centurion Integration Modes</text></g><!--cluster centurion--><g class="cluster" data-qualified-name="centurion" data-source-line="66" id="ent0002"><polygon fill="#141414" points="1608,67.6094,1618,57.6094,1854,57.6094,1854,490.9894,1844,500.9894,1608,500.9894,1608,67.6094" style="stroke:#3D3D5C;stroke-width:1;"/><line style="stroke:#3D3D5C;stroke-width:1;" x1="1844" x2="1854" y1="67.6094" y2="57.6094"/><line style="stroke:#3D3D5C;stroke-width:1;" x1="1608" x2="1844" y1="67.6094" y2="67.6094"/><line style="stroke:#3D3D5C;stroke-width:1;" x1="1844" x2="1844" y1="67.6094" y2="500.9894"/><text fill="#F0EFE8" font-family="'Inter, Helvetica, Arial, sans-serif'" font-size="14" font-weight="700" lengthAdjust="spacing" textLength="161.5879" x="1646.2061" y="83.6045">Centurion Scheduler</text><text fill="#F0EFE8" font-family="'Inter, Helvetica, Arial, sans-serif'" font-size="14" font-weight="700" lengthAdjust="spacing" textLength="116.1357" x="1668.9321" y="99.9014">localhost:8100</text></g><!--cluster modes--><g class="cluster" data-qualified-name="modes" data-source-line="76" id="ent0008"><path d="M13.5,213.2094 L159.5859,213.2094 A3.75,3.75 0 0 1 162.0859,215.7094 L169.0859,235.5063 L1581.5,235.5063 A2.5,2.5 0 0 1 1584,238.0063 L1584,346.8994 A2.5,2.5 0 0 1 1581.5,349.3994 L13.5,349.3994 A2.5,2.5 0 0 1 11,346.8994 L11,215.7094 A2.5,2.5 0 0 1 13.5,213.2094" fill="#141414" style="stroke:#3D3D5C;stroke-width:1;"/><line style="stroke:#3D3D5C;stroke-width:1;" x1="11" x2="169.0859" y1="235.5063" y2="235.5063"/><text fill="#D97757" font-family="'Inter, Helvetica, Arial, sans-serif'" font-size="14" font-weight="700" lengthAdjust="spacing" textLength="145.0859" x="15" y="228.2045">Integration Modes</text></g><!--entity hwmon--><g class="entity" data-qualified-name="centurion.hwmon" data-source-line="67" id="ent0003"><rect fill="#1A1A2E" height="52.5938" rx="6" ry="6" style="stroke:#3D3D5C;stroke-width:1;" width="190.0029" x="1636" y="113.6094"/><text fill="#F0EFE8" font-family="'Inter, Helvetica, Arial, sans-serif'" font-size="14" lengthAdjust="spacing" textLength="125.8154" x="1646" y="136.6045">Hardware Monitor</text><text fill="#F0EFE8" font-family="'Inter, Helvetica, Arial, sans-serif'" font-size="14" lengthAdjust="spacing" textLength="170.0029" x="1646" y="152.9014">CPU &#183; Memory &#183; Thermal</text></g><!--entity recommender--><g class="entity" data-qualified-name="centurion.recommender" data-source-line="68" id="ent0004"><rect fill="#1A1A2E" height="52.5938" rx="6" ry="6" style="stroke:#3D3D5C;stroke-width:1;" width="214.0176" x="1623.99" y="264.5094"/><text fill="#F0EFE8" font-family="'Inter, Helvetica, Arial, sans-serif'" font-size="14" lengthAdjust="spacing" textLength="148.5107" x="1633.99" y="287.5045">Agent Recommender</text><text fill="#F0EFE8" font-family="'Inter, Helvetica, Arial, sans-serif'" font-size="14" lengthAdjust="spacing" textLength="194.0176" x="1633.99" y="303.8014">recommended_max_agents</text></g><!--entity api--><g class="entity" data-qualified-name="centurion.api" data-source-line="69" id="ent0005"><rect fill="#1A1A2E" height="52.5938" rx="6" ry="6" style="stroke:#3D3D5C;stroke-width:1;" width="129.1357" x="1624.43" y="432.3994"/><text fill="#F0EFE8" font-family="'Inter, Helvetica, Arial, sans-serif'" font-size="14" lengthAdjust="spacing" textLength="62.6104" x="1634.43" y="455.3945">REST API</text><text fill="#F0EFE8" font-family="'Inter, Helvetica, Arial, sans-serif'" font-size="14" lengthAdjust="spacing" textLength="109.1357" x="1634.43" y="471.6914">/api/centurion/*</text></g><!--entity harness--><g class="entity" data-qualified-name="modes.harness" data-source-line="78" id="ent0009"><rect fill="#1A1A2E" height="68.8906" rx="6" ry="6" style="stroke:#3D3D5C;stroke-width:1;" width="315.6475" x="346.18" y="256.3594"/><text fill="#F0EFE8" font-family="'Inter, Helvetica, Arial, sans-serif'" font-size="14" font-weight="700" lengthAdjust="spacing" textLength="132.0566" x="356.18" y="279.3545">1 &#183; Harness Loop</text><text fill="#F0EFE8" font-family="'Inter, Helvetica, Arial, sans-serif'" font-size="14" lengthAdjust="spacing" textLength="271.9268" x="356.18" y="295.6514">Autonomous multi-agent orchestration</text><text fill="#F0EFE8" font-family="'Inter, Helvetica, Arial, sans-serif'" font-size="14" lengthAdjust="spacing" textLength="295.6475" x="356.18" y="311.9482">Task DAG &#8594; batch dispatch &#8594; review gate</text></g><!--entity interactive--><g class="entity" data-qualified-name="modes.interactive" data-source-line="80" id="ent0010"><rect fill="#1A1A2E" height="85.1875" rx="6" ry="6" style="stroke:#3D3D5C;stroke-width:1;" width="304.9971" x="988.5" y="248.2094"/><text fill="#F0EFE8" font-family="'Inter, Helvetica, Arial, sans-serif'" font-size="14" font-weight="700" lengthAdjust="spacing" textLength="214.0947" x="998.5" y="271.2045">2 &#183; Claude Code Interactive</text><text fill="#F0EFE8" font-family="'Inter, Helvetica, Arial, sans-serif'" font-size="14" lengthAdjust="spacing" textLength="155.9824" x="998.5" y="287.5014">Local terminal session</text><text fill="#F0EFE8" font-family="'Inter, Helvetica, Arial, sans-serif'" font-size="14" lengthAdjust="spacing" textLength="284.9971" x="998.5" y="303.7982">Developer uses Claude Code CLI directly</text><text fill="#F0EFE8" font-family="'Inter, Helvetica, Arial, sans-serif'" font-size="14" lengthAdjust="spacing" textLength="276.0488" x="998.5" y="320.0951">Centurion limits background subagents</text></g><!--entity clipipe--><g class="entity" data-qualified-name="modes.clipipe" data-source-line="82" id="ent0011"><rect fill="#1A1A2E" height="85.1875" rx="6" ry="6" style="stroke:#3D3D5C;stroke-width:1;" width="256.7012" x="696.65" y="248.2094"/><text fill="#F0EFE8" font-family="'Inter, Helvetica, Arial, sans-serif'" font-size="14" font-weight="700" lengthAdjust="spacing" textLength="136.6025" x="706.65" y="271.2045">3 &#183; CLI Pipe Mode</text><text fill="#F0EFE8" font-family="'Inter, Helvetica, Arial, sans-serif'" font-size="14" lengthAdjust="spacing" textLength="173.6191" x="706.65" y="287.5014">claude -p for automation</text><text fill="#F0EFE8" font-family="'Inter, Helvetica, Arial, sans-serif'" font-size="14" lengthAdjust="spacing" textLength="174.1797" x="706.65" y="303.7982">Scripts &amp; CI/CD pipelines</text><text fill="#F0EFE8" font-family="'Inter, Helvetica, Arial, sans-serif'" font-size="14" lengthAdjust="spacing" textLength="236.7012" x="706.65" y="320.0951">Query Centurion before spawning</text></g><!--entity ralph--><g class="entity" data-qualified-name="modes.ralph" data-source-line="84" id="ent0012"><rect fill="#1A1A2E" height="85.1875" rx="6" ry="6" style="stroke:#3D3D5C;stroke-width:1;" width="239.3242" x="1328.34" y="248.2094"/><text fill="#F0EFE8" font-family="'Inter, Helvetica, Arial, sans-serif'" font-size="14" font-weight="700" lengthAdjust="spacing" textLength="112.875" x="1338.34" y="271.2045">4 &#183; Ralph Loop</text><text fill="#F0EFE8" font-family="'Inter, Helvetica, Arial, sans-serif'" font-size="14" lengthAdjust="spacing" textLength="164.5957" x="1338.34" y="287.5014">Continuous agent cycle</text><text fill="#F0EFE8" font-family="'Inter, Helvetica, Arial, sans-serif'" font-size="14" lengthAdjust="spacing" textLength="219.3242" x="1338.34" y="303.7982">Long-running autonomous loop</text><text fill="#F0EFE8" font-family="'Inter, Helvetica, Arial, sans-serif'" font-size="14" lengthAdjust="spacing" textLength="207.0469" x="1338.34" y="320.0951">Polls Centurion each iteration</text></g><!--entity telegram--><g class="entity" data-qualified-name="modes.telegram" data-source-line="86" id="ent0013"><rect fill="#1A1A2E" height="85.1875" rx="6" ry="6" style="stroke:#3D3D5C;stroke-width:1;" width="283.833" x="27.08" y="248.2094"/><text fill="#F0EFE8" font-family="'Inter, Helvetica, Arial, sans-serif'" font-size="14" font-weight="700" lengthAdjust="spacing" textLength="178.9033" x="37.08" y="271.2045">5 &#183; Telegram Bot Mode</text><text fill="#F0EFE8" font-family="'Inter, Helvetica, Arial, sans-serif'" font-size="14" lengthAdjust="spacing" textLength="263.833" x="37.08" y="287.5014">Background execution + notifications</text><text fill="#F0EFE8" font-family="'Inter, Helvetica, Arial, sans-serif'" font-size="14" lengthAdjust="spacing" textLength="255.124" x="37.08" y="303.7982">User sends commands via Telegram</text><text fill="#F0EFE8" font-family="'Inter, Helvetica, Arial, sans-serif'" font-size="14" lengthAdjust="spacing" textLength="220.4727" x="37.08" y="320.0951">Bot manages gateway sessions</text></g><!--entity anthropic--><g class="entity" data-qualified-name="anthropic" data-source-line="97" id="ent0019"><path d="M767.6689,437.1761 C770.2115,432.045 775.0069,432.597 777.9663,436.7119 C781.2897,430.6773 785.7029,429.2564 790.6844,434.9073 C794.9926,428.9634 800.6643,430.0813 803.3686,436.5467 C806.2246,431.4067 810.077,431.2707 813.7084,435.7096 C818.0033,429.8864 822.1615,429.5578 826.6095,435.5423 C829.4966,429.625 833.4198,429.6511 837.4243,434.4105 C841.1325,429.5561 845.6848,429.4882 848.9826,434.8737 C852.4949,428.4652 857.8142,430.12 860.8759,435.3348 C865.2889,429.5704 869.7834,430.2985 872.6642,436.8066 C875.9238,431.8072 881.6585,430.8911 884.8845,436.844 C892.4678,439.2459 892.4077,443.4179 888.1128,448.9796 C895.4852,449.7754 896.6016,454.0698 893.9821,460.1267 C898.8401,465.4071 897.2242,470.7181 890.2169,472.341 C893.2119,478.3412 891.2051,482.1979 884.5637,483.1654 C882.4299,488.5571 878.5936,490.2178 874.0261,485.7723 C871.0802,491.7526 865.8727,491.6757 861.7784,487.1055 C859.1279,492.4979 854.8203,494.4449 850.3083,489.0927 C847.1881,494.5304 842.9382,495.558 838.4542,490.6563 C835.7194,496.4039 829.733,497.4644 825.5607,492.365 C821.3724,496.9682 816.7771,496.9629 813.5689,491.2281 C808.3891,496.8811 803.7752,495.1025 801.4415,488.4281 C797.1238,492.6307 792.162,491.1816 790.2646,485.6493 C787.4592,491.4031 782.7767,491.225 779.756,485.8527 C774.8828,491.2851 769.8424,490.3687 767.384,483.4364 C760.3134,481.553 760.1479,476.7051 763.7773,471.5696 C757.5419,470.2719 755.7619,466.153 759.187,460.7548 C755.0789,454.73 756.2405,450.3223 763.3445,447.933 C759.3602,442.6603 761.2648,438.2725 767.6689,437.1761" fill="#1A1A2E" style="stroke:#3D3D5C;stroke-width:1;"/><text fill="#F0EFE8" font-family="'Inter, Helvetica, Arial, sans-serif'" font-size="14" lengthAdjust="spacing" textLength="94.2061" x="773.02" y="455.3945">Anthropic API</text><text fill="#F0EFE8" font-family="'Inter, Helvetica, Arial, sans-serif'" font-size="14" lengthAdjust="spacing" textLength="103.9541" x="773.02" y="471.6914">Claude models</text></g><!--entity tgapi--><g class="entity" data-qualified-name="tgapi" data-source-line="98" id="ent0020"><path d="M117.4777,444.3155 C120.2556,438.2862 125.3031,437.1626 129.4776,442.89 C133.4679,435.7395 140.5205,436.9048 143.8162,443.6089 C147.2403,437.9296 151.3273,436.9085 155.9998,442.2257 C159.1865,434.2647 166.3145,434.5293 170.9147,440.7379 C175.9737,435.6722 180.1248,436.4408 183.3683,442.7292 C188.0711,436.0982 192.4968,437.1349 196.8464,443.1069 C200.9497,437.6766 206.8904,439.1128 209.3513,444.9325 C213.5342,437.6763 218.4644,437.4224 223.8227,443.6733 C233.7436,444.6372 236.4587,451.8421 230.3091,459.4241 C236.6649,467.3779 232.5944,474.7648 223.2223,475.9903 C220.6317,483.6324 214.7074,483.496 209.9721,478.1841 C207.4007,485.533 201.3796,485.9023 197.1863,479.7162 C194.4546,486.8441 188.254,487.7768 183.5233,481.8005 C180.7513,488.9645 174.5732,490.0466 169.0548,485.075 C163.6284,489.0197 159.17,489.5051 156.8243,481.8319 C152.0177,489.1299 145.3679,487.0167 142.3721,480.0033 C137.789,484.6334 133.3094,483.3441 130.9145,477.5892 C126.5387,483.396 120.069,481.7828 117.5839,475.5038 C108.2741,474.639 104.541,468.6273 108.5195,459.9956 C104.8388,450.7725 107.817,445.9165 117.4777,444.3155" fill="#1A1A2E" style="stroke:#3D3D5C;stroke-width:1;"/><text fill="#F0EFE8" font-family="'Inter, Helvetica, Arial, sans-serif'" font-size="14" lengthAdjust="spacing" textLength="93.126" x="122.44" y="463.5345">Telegram API</text></g><!--entity restclient--><g class="entity" data-qualified-name="restclient" data-source-line="108" id="ent0027"><rect fill="#1A1A2E" height="68.8906" rx="6" ry="6" style="stroke:#3D3D5C;stroke-width:1;" width="213.3066" x="1873.35" y="256.3594"/><text fill="#F0EFE8" font-family="'Inter, Helvetica, Arial, sans-serif'" font-size="14" font-weight="700" lengthAdjust="spacing" textLength="95.9629" x="1883.35" y="279.3545">6 &#183; REST API</text><text fill="#F0EFE8" font-family="'Inter, Helvetica, Arial, sans-serif'" font-size="14" lengthAdjust="spacing" textLength="134.374" x="1883.35" y="295.6514">Direct HTTP access</text><text fill="#F0EFE8" font-family="'Inter, Helvetica, Arial, sans-serif'" font-size="14" lengthAdjust="spacing" textLength="193.3066" x="1883.35" y="311.9482">Custom tools &amp; dashboards</text></g><!--link hwmon to recommender--><g class="link" data-entity-1="ent0003" data-entity-2="ent0004" data-link-type="dependency" data-source-line="70" id="lnk6"><path d="M1731,166.5094 C1731,193.7794 1731,230.7094 1731,258.0394" fill="none" id="hwmon-to-recommender" style="stroke:#3D3D5C;stroke-width:1;"/><polygon fill="#3D3D5C" points="1731,264.0394,1735,255.0394,1731,259.0394,1727,255.0394,1731,264.0394" style="stroke:#3D3D5C;stroke-width:1;"/></g><!--link recommender to api--><g class="link" data-entity-1="ent0004" data-entity-2="ent0005" data-link-type="dependency" data-source-line="71" id="lnk7"><path d="M1724.53,317.3594 C1716.64,348.5294 1704.8414,395.1026 1696.9514,426.2926" fill="none" id="recommender-to-api" style="stroke:#3D3D5C;stroke-width:1;"/><polygon fill="#3D3D5C" points="1695.48,432.1094,1701.565,424.3652,1696.7062,427.2621,1693.8093,422.4033,1695.48,432.1094" style="stroke:#3D3D5C;stroke-width:1;"/></g><!--link harness to api--><g class="link" data-entity-1="ent0009" data-entity-2="ent0005" data-link-type="dependency" data-source-line="90" id="lnk14"><path d="M586.36,325.6394 C615.32,336.7394 648.3,348.4994 679,357.3994 C762.72,381.6494 784.68,385.2794 871,397.3994 C1149.51,436.4994 1479.1534,450.9586 1618.0134,455.6086" fill="none" id="harness-to-api" style="stroke:#D97757;stroke-width:2;"/><polygon fill="#D97757" points="1624.01,455.8094,1615.1489,451.5104,1619.0128,455.642,1614.8812,459.5059,1624.01,455.8094" style="stroke:#D97757;stroke-width:2;"/><text fill="#7C7C9E" font-family="'Inter, Helvetica, Arial, sans-serif'" font-size="13" lengthAdjust="spacing" textLength="96.4844" x="887.5994" y="378.4663">GET /hardware</text><text fill="#7C7C9E" font-family="'Inter, Helvetica, Arial, sans-serif'" font-size="13" lengthAdjust="spacing" textLength="127.6831" x="872" y="393.5991">every loop iteration</text></g><!--link interactive to api--><g class="link" data-entity-1="ent0010" data-entity-2="ent0005" data-link-type="dependency" data-source-line="91" id="lnk15"><path d="M1244.65,333.8494 C1266.41,342.0994 1289.34,350.3694 1311,357.3994 C1419.49,392.6094 1542.5419,423.4151 1618.3319,441.3851" fill="none" id="interactive-to-api" style="stroke:#D97757;stroke-width:1;"/><polygon fill="#D97757" points="1624.17,442.7694,1616.3356,436.8009,1619.3049,441.6158,1614.49,444.5851,1624.17,442.7694" style="stroke:#D97757;stroke-width:1;"/><text fill="#7C7C9E" font-family="'Inter, Helvetica, Arial, sans-serif'" font-size="13" lengthAdjust="spacing" textLength="77.562" x="1445" y="385.9663">check limits</text></g><!--link clipipe to api--><g class="link" data-entity-1="ent0011" data-entity-2="ent0005" data-link-type="dependency" data-source-line="92" id="lnk16"><path d="M908.48,333.8494 C928.56,342.6794 950.23,351.1994 971,357.3994 C1204.97,427.2494 1490.6674,448.5306 1618.2374,454.8906" fill="none" id="clipipe-to-api" style="stroke:#D97757;stroke-width:1;"/><polygon fill="#D97757" points="1624.23,455.1894,1615.4403,450.7462,1619.2362,454.9404,1615.042,458.7363,1624.23,455.1894" style="stroke:#D97757;stroke-width:1;"/><text fill="#7C7C9E" font-family="'Inter, Helvetica, Arial, sans-serif'" font-size="13" lengthAdjust="spacing" textLength="109.8081" x="1125" y="385.9663">pre-spawn query</text></g><!--link ralph to api--><g class="link" data-entity-1="ent0012" data-entity-2="ent0005" data-link-type="dependency" data-source-line="93" id="lnk17"><path d="M1509.13,333.8794 C1554.03,364.7894 1608.6583,402.3866 1646.6783,428.5666" fill="none" id="ralph-to-api" style="stroke:#D97757;stroke-width:1;"/><polygon fill="#D97757" points="1651.62,431.9694,1646.4759,423.5707,1647.5019,429.1337,1641.9388,430.1597,1651.62,431.9694" style="stroke:#D97757;stroke-width:1;"/><text fill="#7C7C9E" font-family="'Inter, Helvetica, Arial, sans-serif'" font-size="13" lengthAdjust="spacing" textLength="87.4453" x="1598" y="385.9663">per-cycle poll</text></g><!--link telegram to api--><g class="link" data-entity-1="ent0013" data-entity-2="ent0005" data-link-type="dependency" data-source-line="94" id="lnk18"><path d="M246,333.7694 C299.97,363.1794 362.58,397.2794 363,397.3994 C393.7,405.9594 1355.7847,444.5223 1618.0347,454.8923" fill="none" id="telegram-to-api" style="stroke:#D97757;stroke-width:1;"/><polygon fill="#D97757" points="1624.03,455.1294,1615.1951,450.7769,1619.0339,454.9318,1614.879,458.7706,1624.03,455.1294" style="stroke:#D97757;stroke-width:1;"/><text fill="#7C7C9E" font-family="'Inter, Helvetica, Arial, sans-serif'" font-size="13" lengthAdjust="spacing" textLength="139.3374" x="364" y="385.9663">session management</text></g><!--link harness to anthropic--><g class="link" data-entity-1="ent0009" data-entity-2="ent0019" data-link-type="dependency" data-source-line="100" id="lnk21"><path d="M504.11,325.4594 C506.05,348.8594 512.57,379.0294 532,397.3994 C563.89,427.5394 675.4014,443.5465 751.5614,451.3665" fill="none" id="harness-to-anthropic" style="stroke:#7C7C9E;stroke-width:1;"/><polygon fill="#7C7C9E" points="757.53,451.9794,748.9856,447.081,752.5562,451.4687,748.1685,455.0392,757.53,451.9794" style="stroke:#7C7C9E;stroke-width:1;"/><text fill="#7C7C9E" font-family="'Inter, Helvetica, Arial, sans-serif'" font-size="13" lengthAdjust="spacing" textLength="94.0596" x="533" y="385.9663">subagent calls</text></g><!--link interactive to anthropic--><g class="link" data-entity-1="ent0010" data-entity-2="ent0019" data-link-type="dependency" data-source-line="101" id="lnk22"><path d="M1116.59,333.6394 C1101.71,355.6594 1080.8,381.3494 1056,397.3994 C1006.58,429.3594 946.8477,443.557 898.1677,450.627" fill="none" id="interactive-to-anthropic" style="stroke:#7C7C9E;stroke-width:1;"/><polygon fill="#7C7C9E" points="892.23,451.4894,901.7115,454.1543,897.1781,450.7707,900.5617,446.2374,892.23,451.4894" style="stroke:#7C7C9E;stroke-width:1;"/></g><!--link clipipe to anthropic--><g class="link" data-entity-1="ent0011" data-entity-2="ent0019" data-link-type="dependency" data-source-line="102" id="lnk23"><path d="M825,333.6594 C825,362.7494 825,394.8494 825,421.0994" fill="none" id="clipipe-to-anthropic" style="stroke:#7C7C9E;stroke-width:1;"/><polygon fill="#7C7C9E" points="825,427.0994,829,418.0994,825,422.0994,821,418.0994,825,427.0994" style="stroke:#7C7C9E;stroke-width:1;"/></g><!--link ralph to anthropic--><g class="link" data-entity-1="ent0012" data-entity-2="ent0019" data-link-type="dependency" data-source-line="103" id="lnk24"><path d="M1424.17,333.7294 C1408.89,356.5094 1386.89,382.9094 1360,397.3994 C1280.69,440.1194 1023.5175,452.5169 898.3075,456.1169" fill="none" id="ralph-to-anthropic" style="stroke:#7C7C9E;stroke-width:1;"/><polygon fill="#7C7C9E" points="892.31,456.2894,901.4212,460.0291,897.3079,456.1457,901.1913,452.0324,892.31,456.2894" style="stroke:#7C7C9E;stroke-width:1;"/></g><!--link telegram to tgapi--><g class="link" data-entity-1="ent0013" data-entity-2="ent0020" data-link-type="dependency" data-source-line="104" id="lnk25"><path d="M168.26,333.6794 C168.01,353.0694 167.83,376.4094 168,397.3994 C168.1,409.8494 168.2186,417.7604 168.4286,429.0704" fill="none" id="telegram-to-tgapi" style="stroke:#7C7C9E;stroke-width:1;"/><polygon fill="#7C7C9E" points="168.54,435.0694,172.3722,425.9967,168.4472,430.0702,164.3736,426.1452,168.54,435.0694" style="stroke:#7C7C9E;stroke-width:1;"/><text fill="#7C7C9E" font-family="'Inter, Helvetica, Arial, sans-serif'" font-size="13" lengthAdjust="spacing" textLength="79.8789" x="169" y="385.9663">notifications</text></g><!--link telegram to anthropic--><g class="link" data-entity-1="ent0013" data-entity-2="ent0019" data-link-type="dependency" data-source-line="105" id="lnk26"><path d="M216.07,333.7394 C246.3,359.7494 283.28,389.6394 302,397.3994 C382.85,430.8994 629.4085,447.7005 751.5385,454.2005" fill="none" id="telegram-to-anthropic" style="stroke:#7C7C9E;stroke-width:1;"/><polygon fill="#7C7C9E" points="757.53,454.5194,748.7553,450.0467,752.5371,454.2536,748.3301,458.0354,757.53,454.5194" style="stroke:#7C7C9E;stroke-width:1;"/></g><!--link restclient to api--><g class="link" data-entity-1="ent0027" data-entity-2="ent0005" data-link-type="dependency" data-source-line="109" id="lnk28"><path d="M1920.76,325.5694 C1865.42,357.1194 1789.2425,400.5478 1739.0925,429.1378" fill="none" id="restclient-to-api" style="stroke:#D97757;stroke-width:1;"/><polygon fill="#D97757" points="1733.88,432.1094,1743.6797,431.127,1738.2237,429.6331,1739.7176,424.177,1733.88,432.1094" style="stroke:#D97757;stroke-width:1;"/><text fill="#7C7C9E" font-family="'Inter, Helvetica, Arial, sans-serif'" font-size="13" lengthAdjust="spacing" textLength="170.3457" x="1844" y="385.9663">GET/POST /api/centurion/*</text></g><g class="legend" data-source-line="111"><rect fill="#1A1A2E" height="55.3984" rx="7.5" ry="7.5" style="stroke:#3D3D5C;stroke-width:1;" width="295.0669" x="1793.5897" y="524.9894"/><text fill="#F0EFE8" font-family="'Inter, Helvetica, Arial, sans-serif'" font-size="13" font-weight="700" lengthAdjust="spacing" textLength="73.3535" x="1798.5897" y="542.0563">Data Flow</text><text fill="#D97757" font-family="'Inter, Helvetica, Arial, sans-serif'" font-size="13" lengthAdjust="spacing" textLength="15.6533" x="1798.5897" y="557.1891">&#9473;&#9473;</text><text fill="#F0EFE8" font-family="'Inter, Helvetica, Arial, sans-serif'" font-size="13" lengthAdjust="spacing" textLength="265.2813" x="1818.3754" y="557.1891">Centurion queries (scheduling decisions)</text><text fill="#7C7C9E" font-family="'Inter, Helvetica, Arial, sans-serif'" font-size="13" lengthAdjust="spacing" textLength="15.6533" x="1798.5897" y="572.3219">&#9473;&#9473;</text><text fill="#F0EFE8" font-family="'Inter, Helvetica, Arial, sans-serif'" font-size="13" lengthAdjust="spacing" textLength="244.6069" x="1818.3754" y="572.3219">External API calls (LLM / notifications)</text></g><?plantuml-src jLRRRXit47tVhs1Le4ss5XJRSPqOWG5NTc83TglQobDL11Ht917cabkIQzaD0hGl_O0Y_zBtVeg_f3DSQY-MWZOe3FjXbpiyStZcp51V-0Nam0h5fKxSjTG5jpndKowkvzQKEXiQPIpxSliv_RKYCfZnKldNHliOCdi6CtYnEUHxZabwPzg3tMAde6x0Iy6ts96LN6qnnxNhEx1orjky_qh-2WppjxuAanT6W_RiVSBOTsk4-JRV0VfYR0OshkvckzcUmDLrtjNQAj67TYfjClYSBDdB_Vsz_S_DKY0udtygKQN_VpXE9_d6H1Q4vtgku56KO-oo0hCQBDlUwUOMofJPurUCMskM8KtSiY_snKlemdJMAfZTXuNt_rkaVy-YO0xwCKG9URpqMEbNWg8EeZiEqtI8dLDQQJIZhfnRxkdv0ftkqlJL88GV9idNxFxZR_ZFcdXXBCJL97H6hurs9HQGbGficawqCeAhXN7-uCNsisSznXqJTIITjx5YxvJRRCaH-i9ewOsTwE7eBVlxBtO1kR5tz3HUWCsv2ZYBPMvq5-5eJjFW4d0ov2We88IjNx9tERzznod41O3ca-t2N9vSZTdHw6oY1xoGWvhm80txS0tZGthM_ocMukV-uJhWwgqRHli_j8Hjov-J_2jjazL0wArLA12fWjydNVPfkarIePeQd6FdnXHKYQFI6sroK-8-dAco7vHWncAvdA-m9thCtJKxFdh3xl_u4-y0BnOiawu83xHauKR2aisvXwe8LPOr2Zj4OQXuYUuOaaN2vEV2oniWDkVa2uPBkTJuu10Zv3-66r2cGCbANEiW3C_Fa0jbKNTeZTf5IkRIkzQ5nLmvRPLPDfdNQEu6cWWyaWK4POcSgBBs2pR3lk8eN1xbkH9M5fZiApOy6moFMO7Rb4G59lh74j2Z3QqfpAXDKBkbbdfUMLz9sh56updHkEIgMDJb6c8FIrrIkQf2YJkXW8JJyxujDM46Qh6c2lTDzCWevLeaW6FT99sV-5UkfpHh3FP2Tu4Yb-KuQdmjHZEG6Do2A8C7lw71A6TuWzChdlujtjrOHPqvkfPpJWytajUGY8EOk8w7SS4-ItwtAdjL9nz3Exs1CcZaIK5iPaqUFUzDwv2nMw8LgTUg6RSrDIgB3SSEs9kJCHiiueoPQ3GQrejaQmHAMbvfS1e8R1Ln7GsNn69kYYiiz4FXsI_aYYHelZ4GR3yKbXLOkMGbmQRGg5NK4EUARybqSekyGoFTEGzvFK6goxPtfFt2caAAQgh5hY8fLQKzNmMiTjHMm0rLTUOqjjeYLzTQ85Z37zIznx2_bNiew8OzRHqtVQwrs_InBLZpFN15BXsFVYAsmMhKF0vJXgsk0SQ5e3D7JJjzystet1X8xHBtdex7exWFzIuTZX0qhL4qEZBk5bE3HbnTGywZ1bJGvd6J0z30Wz4FcEhXhPGayGV4r7XAPELyuR73q_IOUyvUAxDCKtn_y1FW_kFl-B-wwLiDHQQLs6LFN7MLqwZ9GCZGgqzRG9MC3u5gCv9smGRioVdv1Hjq2_8q8SeLyty0?></g></svg>